<?xml version="1.0" encoding="UTF-8" standalone="no"?>
<!-- Created with Inkscape (http://www.inkscape.org/) -->

<svg
   xmlns:dc="http://purl.org/dc/elements/1.1/"
   xmlns:cc="http://creativecommons.org/ns#"
   xmlns:rdf="http://www.w3.org/1999/02/22-rdf-syntax-ns#"
   xmlns:svg="http://www.w3.org/2000/svg"
   xmlns="http://www.w3.org/2000/svg"
   xmlns:sodipodi="http://sodipodi.sourceforge.net/DTD/sodipodi-0.dtd"
   xmlns:inkscape="http://www.inkscape.org/namespaces/inkscape"
   width="210mm"
   height="297mm"
   viewBox="0 0 210 297"
   version="1.1"
   id="svg8"
   inkscape:version="0.92.2 5c3e80d, 2017-08-06"
   sodipodi:docname="Bike Plug.svg">
  <defs
     id="defs2" />
  <sodipodi:namedview
     id="base"
     pagecolor="#ffffff"
     bordercolor="#666666"
     borderopacity="1.0"
     inkscape:pageopacity="0.0"
     inkscape:pageshadow="2"
     inkscape:zoom="1.6925781"
     inkscape:cx="291.2901"
     inkscape:cy="134.61343"
     inkscape:document-units="mm"
     inkscape:current-layer="layer1"
     showgrid="false"
     inkscape:window-width="2560"
     inkscape:window-height="1395"
     inkscape:window-x="0"
     inkscape:window-y="1"
     inkscape:window-maximized="1" />
  <metadata
     id="metadata5">
    <rdf:RDF>
      <cc:Work
         rdf:about="">
        <dc:format>image/svg+xml</dc:format>
        <dc:type
           rdf:resource="http://purl.org/dc/dcmitype/StillImage" />
        <dc:title></dc:title>
      </cc:Work>
    </rdf:RDF>
  </metadata>
  <g
     inkscape:label="Layer 1"
     inkscape:groupmode="layer"
     id="layer1">
    <g
       transform="matrix(0.35277777,0,0,-0.35277777,36.929533,293.38366)"
       id="g1353">
      <path
         inkscape:connector-curvature="0"
         id="path1355"
         style="fill:none;stroke:#0000ff;stroke-width:0.75;stroke-linecap:butt;stroke-linejoin:miter;stroke-miterlimit:10;stroke-dasharray:none;stroke-opacity:1"
         d="M 6.04352,9.59446 7.05681,8.43718 7.37292,8.1026 8.47083,7.02527 8.81134,6.71555 9.98758,5.72434 10.35054,5.44127 11.59838,4.54185 11.9817,4.28703 13.29399,3.48456 13.69549,3.25947 15.06471,2.55855 15.48208,2.36446 16.90039,1.7691 17.33124,1.60713 18.79051,1.12074 19.23238,0.99182 20.72426,0.61719 21.17462,0.52206 22.37408,0.31576 v 10.33143 l 0.0027,0.01377 0.0078,0.01168 0.01168,0.0078 0.01378,0.0027 0.01378,-0.0027 0.01168,-0.0078 0.0078,-0.01168 0.0027,-0.01377 h 7.92 l 0.0027,0.01377 0.0078,0.01168 0.01167,0.0078 0.01378,0.0027 0.01378,-0.0027 0.01168,-0.0078 0.0078,-0.01168 0.0027,-0.01377 V 0.31379 l 0.21641,0.02883 0.45363,0.07803 1.50499,0.31791 0.44643,0.1121 1.47663,0.43083 0.43668,0.14554 1.43982,0.54126 0.42442,0.17816 1.39476,0.64861 0.40973,0.20974 1.34171,0.75223 0.39269,0.24013 1.28099,0.85155 0.3734,0.26914 1.21291,0.94599 0.35198,0.29661 1.1379,1.03502 0.32854,0.32238 1.05636,1.1181 0.30322,0.3463 0.96877,1.1948 0.27616,0.36824 0.87564,1.26464 0.09051,0.13469 0.15701,0.25339 0.77749,1.32724 0.08444,0.14907 0.13302,0.25661 0.67488,1.38224 0.07668,0.16328 0.10948,0.25769 0.56841,1.42933 0.06722,0.17711 0.08657,0.25673 0.45868,1.46822 0.05608,0.19041 0.06446,0.25381 0.34633,1.4987 0.04326,0.203 0.04333,0.24908 0.10814,0.70878 h 0.36 -0.1527 -0.2073 -10.33 l -0.01377,0.0027 -0.01168,0.0078 -0.0078,0.01167 -0.0027,0.01378 0.0027,0.01378 0.0078,0.01168 0.01168,0.0078 0.01377,0.0027 v 7.92 l -0.01377,0.0027 -0.01168,0.0078 -0.0078,0.01168 -0.0027,0.01377 0.0027,0.01378 0.0078,0.01168 0.01168,0.0078 0.01377,0.0027 h 10.33 l -0.10814,0.70879 -0.04333,0.24908 -0.04326,0.20299 -0.34633,1.4987 -0.06446,0.25382 -0.05608,0.19041 -0.45868,1.46822 -0.08657,0.25673 -0.06722,0.17711 -0.56841,1.42933 -0.10948,0.25769 -0.07668,0.16328 -0.67488,1.38223 -0.13302,0.25661 -0.08444,0.14907 -0.77749,1.32725 -0.15701,0.25338 -0.09051,0.13469 -0.87564,1.26464 -0.27616,0.36825 -0.96877,1.19479 -0.30322,0.3463 -1.05636,1.11811 -0.32854,0.32238 -1.1379,1.03502 -0.35198,0.2966 -1.21291,0.94599 -0.3734,0.26914 -1.28099,0.85155 -0.39269,0.24013 -1.34171,0.75224 -0.40973,0.20974 -1.39476,0.6486 -0.42442,0.17816 -1.43982,0.54127 -0.43668,0.14554 -1.47663,0.43082 -0.44643,0.11211 -1.50499,0.3179 -0.45363,0.07802 -0.21641,0.02884 V 42.15526 l -0.0027,-0.01378 -0.0078,-0.01168 -0.01168,-0.0078 -0.01378,-0.0027 -0.01378,0.0027 -0.01167,0.0078 -0.0078,0.01168 -0.0027,0.01378 h -7.92 l -0.0027,-0.01378 -0.0078,-0.01168 -0.01168,-0.0078 -0.01378,-0.0027 -0.01378,0.0027 -0.01168,0.0078 -0.0078,0.01168 -0.0027,0.01378 V 52.48669 L 21.17462,52.28039 20.72426,52.18526 19.23238,51.81063 18.79051,51.6817 17.33124,51.19532 16.90039,51.03335 15.48208,50.43799 15.06471,50.2439 13.69549,49.54298 13.29399,49.31788 11.9817,48.51559 11.59838,48.26078 10.35054,47.36136 9.98758,47.07828 8.81134,46.08708 8.47083,45.77736 7.37292,44.70003 7.05681,44.36544 6.04352,43.20816 5.75362,42.85064 4.83075,41.62004 4.56873,41.2416 3.74157,39.94474 3.65389,39.80285 3.50892,39.54757 2.78221,38.19186 2.70143,38.03565 2.58026,37.77824 1.95816,36.37145 1.886,36.2012 1.78807,35.94374 1.27415,34.49393 1.2123,34.31009 1.13689,34.05458 0.7341,32.57005 0.68423,32.37325 0.63046,32.12158 0.34108,30.61085 0.31028,30.43331 h 10.33676 l 0.01378,-0.0027 0.01168,-0.0078 0.0078,-0.01168 0.0027,-0.01378 -0.0027,-0.01377 -0.0078,-0.01168 -0.01168,-0.0078 -0.01378,-0.0027 v -7.92 l 0.01378,-0.0027 0.01168,-0.0078 0.0078,-0.01168 0.0027,-0.01378 -0.0027,-0.01378 -0.0078,-0.01167 -0.01168,-0.0078 -0.01378,-0.0027 H 0.31028 L 0.34108,22.19196 0.63046,20.68104 0.68423,20.42937 0.7341,20.23257 1.13689,18.74805 1.2123,18.49254 1.27415,18.3087 1.78807,16.85889 1.886,16.60143 1.95816,16.43118 2.58026,15.02439 2.70143,14.76698 2.78221,14.61077 3.50892,13.25506 3.65389,12.99978 3.74157,12.85789 4.56873,11.56102 4.83075,11.18259 5.75362,9.95199 6.04352,9.59446" />
      <path
         inkscape:connector-curvature="0"
         id="path1357"
         style="fill:none;stroke:#ff0000;stroke-width:1;stroke-linecap:butt;stroke-linejoin:miter;stroke-miterlimit:10;stroke-dasharray:none;stroke-opacity:1"
         d="m 25.79076,19.37411 v 14.0544 l -3.12448,-3.12535" />
      <path
         inkscape:connector-curvature="0"
         id="path1359"
         style="fill:none;stroke:#ff0000;stroke-width:1;stroke-linecap:butt;stroke-linejoin:miter;stroke-miterlimit:10;stroke-dasharray:none;stroke-opacity:1"
         d="m 33.4334,27.34662 v -6.24189 l -9.28529,5.76771 v 0 l -0.0085,0.0069 -0.0086,0.0066 -0.0088,0.0064 -0.009,0.0062 -0.0093,0.006 -0.0096,0.0059 -0.01005,0.0058 -0.01057,0.0058 -0.01114,0.0058 v 0 l -0.51132,0.23815 -0.53003,0.13912 -0.53677,0.0435 -0.53152,-0.0487 -0.51429,-0.1375 -0.4851,-0.22288 -0.44393,-0.30487 -0.39077,-0.38344 -0.32565,-0.45859 v 0 l -0.23476,-0.51275 -0.13698,-0.53084 -0.04228,-0.53707 0.04935,-0.53144 0.13788,-0.51394 0.22333,-0.48456 0.3057,-0.44332 0.385,-0.39022 0.46119,-0.32524 0.78619,-0.40984" />
      <path
         inkscape:connector-curvature="0"
         id="path1361"
         style="fill:none;stroke:#ff0000;stroke-width:1;stroke-linecap:butt;stroke-linejoin:miter;stroke-miterlimit:10;stroke-dasharray:none;stroke-opacity:1"
         d="M 31.69775,33.42807 H 28.5768 v 0 L 28.01549,33.37772 27.48732,33.2326 27.00107,33.00162 26.56552,32.69368 26.18947,32.31771 25.88169,31.8826 25.65097,31.39726 25.5061,30.8706 25.45585,30.31153 v -1.56268 0 l 0.05025,-0.55883 0.14487,-0.52654 0.23072,-0.4853 0.30778,-0.43514 0.37605,-0.37605 0.43555,-0.30803 0.48625,-0.23107 0.52817,-0.14519 0.56131,-0.05039 h 1.56268 -1.56268 v 0 L 28.01549,25.58192 27.48732,25.43664 27.00107,25.20534 26.56552,24.89686 26.18947,24.52007 25.88169,24.08384 25.65097,23.597 25.5061,23.06842 25.45585,22.50696 v 0 l 0.05025,-0.55884 0.14487,-0.52653 0.23072,-0.48531 0.30778,-0.43514 0.37605,-0.37605 0.43555,-0.30802 0.48625,-0.23108 0.52817,-0.14519 0.56131,-0.05038 h 3.12095" />
      <path
         inkscape:connector-curvature="0"
         id="path1363"
         style="fill:none;stroke:#ff0000;stroke-width:1;stroke-linecap:butt;stroke-linejoin:miter;stroke-miterlimit:10;stroke-dasharray:none;stroke-opacity:1"
         d="m 22.50335,24.6751 v 7.80369 l 10.92993,-3.11654" />
      <path
         inkscape:connector-curvature="0"
         id="path1365"
         style="fill:none;stroke:#ff0000;stroke-width:1;stroke-linecap:butt;stroke-linejoin:miter;stroke-miterlimit:10;stroke-dasharray:none;stroke-opacity:1"
         d="m 19.37888,27.01427 h 6.2419" />
      <path
         inkscape:connector-curvature="0"
         id="path1367"
         style="fill:none;stroke:#ff0000;stroke-width:1;stroke-linecap:butt;stroke-linejoin:miter;stroke-miterlimit:10;stroke-dasharray:none;stroke-opacity:1"
         d="m 22.71433,23.42426 h -4.2223 l 4.2223,7.60434 h -4.2223" />
      <path
         inkscape:connector-curvature="0"
         id="path1369"
         style="fill:none;stroke:#ff0000;stroke-width:1;stroke-linecap:butt;stroke-linejoin:miter;stroke-miterlimit:10;stroke-dasharray:none;stroke-opacity:1"
         d="M 29.72459,27.22643 H 25.56667" />
      <path
         inkscape:connector-curvature="0"
         id="path1371"
         style="fill:none;stroke:#ff0000;stroke-width:1;stroke-linecap:butt;stroke-linejoin:miter;stroke-miterlimit:10;stroke-dasharray:none;stroke-opacity:1"
         d="m 35.95334,23.4242 h -3.37726 l 3.1207,5.02394 v 0 l 0.0037,0.0046 0.0036,0.0046 0.0035,0.0047 0.0033,0.0049 0.0033,0.005 0.0032,0.0052 0.0032,0.0054 0.0032,0.0057 0.0032,0.006 v 0 l 0.12885,0.27666 0.07527,0.28678 0.02354,0.29042 -0.02635,0.28759 -0.0744,0.27826 -0.12059,0.26247 -0.16495,0.2402 -0.20747,0.21143 -0.24813,0.1762 v 0 l -0.27743,0.12702 -0.28722,0.07411 -0.29059,0.02288 -0.28754,-0.0267 -0.27807,-0.0746 -0.26218,-0.12084 -0.23987,-0.16541 -0.21113,-0.2083 -0.17598,-0.24954 -0.22175,-0.42538" />
    </g>
    <g
       transform="matrix(0.35277777,0,0,-0.35277777,58.781152,293.38366)"
       id="g1373">
      <path
         inkscape:connector-curvature="0"
         id="path1375"
         style="fill:none;stroke:#0000ff;stroke-width:0.75;stroke-linecap:butt;stroke-linejoin:miter;stroke-miterlimit:10;stroke-dasharray:none;stroke-opacity:1"
         d="M 8.0457,7.27407 9.01001,6.37626 9.43513,6.03368 10.46103,5.20696 10.9095,4.89558 11.99177,4.14414 12.46131,3.86555 13.59443,3.19324 14.08265,2.94886 15.26085,2.3591 15.76526,2.15016 16.98252,1.64596 17.50055,1.47354 18.75068,1.05745 19.27969,0.92243 20.55633,0.59659 21.09362,0.49965 22.07343,0.32288 v 10.17384 l 0.0027,0.01377 0.0078,0.01168 0.01168,0.0078 0.01377,0.0027 0.01378,-0.0027 0.01168,-0.0078 0.0078,-0.01168 0.0027,-0.01377 h 7.92 l 0.0027,0.01377 0.0078,0.01168 0.01168,0.0078 0.01377,0.0027 0.01378,-0.0027 0.01168,-0.0078 0.0078,-0.01168 0.0027,-0.01377 V 0.32288 l 0.22049,0.03978 1.29662,0.23393 0.52902,0.13502 1.27663,0.32584 0.51802,0.17242 1.25014,0.41609 0.50441,0.20893 1.21726,0.50421 0.48822,0.24438 1.1782,0.58976 0.46954,0.2786 1.13312,0.6723 0.44847,0.31139 1.08227,0.75143 0.42511,0.34258 1.02591,0.82672 0.39959,0.37204 0.96431,0.89781 0.37204,0.39959 0.89781,0.96431 0.34258,0.42512 0.82672,1.0259 0.31138,0.44847 0.75143,1.08228 0.27859,0.46954 0.67231,1.13311 0.24439,0.48822 0.58976,1.1782 0.20893,0.50441 0.50421,1.21726 0.17242,0.51803 0.41609,1.25013 0.13502,0.52901 0.32583,1.27664 0.09694,0.53729 0.17678,0.97981 H 41.71397 l -0.01378,0.0027 -0.01168,0.0078 -0.0078,0.01168 -0.0027,0.01377 0.0027,0.01378 0.0078,0.01168 0.01168,0.0078 0.01378,0.0027 v 7.92 l -0.01378,0.0027 -0.01168,0.0078 -0.0078,0.01168 -0.0027,0.01377 0.0027,0.01378 0.0078,0.01168 0.01168,0.0078 0.01378,0.0027 h 10.17384 l -0.03978,0.22049 -0.23394,1.29662 -0.13502,0.52902 -0.32583,1.27663 -0.17242,0.51803 -0.41609,1.25013 -0.20893,0.50441 -0.50421,1.21726 -0.24438,0.48822 -0.58977,1.1782 -0.27859,0.46954 -0.67231,1.13311 -0.31138,0.44847 -0.75143,1.08228 -0.34257,0.42511 -0.82673,1.02591 -0.37204,0.39959 -0.89781,0.96432 -0.39959,0.37203 -0.96431,0.89781 -0.42512,0.34258 -1.0259,0.82672 -0.44847,0.31138 -1.08227,0.75143 -0.46955,0.2786 -1.13311,0.67231 -0.48822,0.24439 -1.1782,0.58975 -0.50441,0.20894 -1.21726,0.5042 -0.51803,0.17242 -1.25013,0.41609 -0.52901,0.13502 -1.27664,0.32584 -0.53729,0.09694 -0.97982,0.17678 V 41.71397 l -0.0027,-0.01378 -0.0078,-0.01168 -0.01168,-0.0078 -0.01378,-0.0027 -0.01377,0.0027 -0.01168,0.0078 -0.0078,0.01168 -0.0027,0.01378 h -7.92 l -0.0027,-0.01378 -0.0078,-0.01168 -0.01168,-0.0078 -0.01378,-0.0027 -0.01377,0.0027 -0.01168,0.0078 -0.0078,0.01168 -0.0027,0.01378 V 51.88782 L 21.85295,51.84822 20.55633,51.61428 20.02731,51.47926 18.75068,51.15342 18.23265,50.981 16.98252,50.56491 16.47811,50.35598 15.26085,49.85177 14.77263,49.60739 13.59443,49.01763 13.12489,48.73904 11.99177,48.06672 11.5433,47.75534 10.46103,47.00391 10.03592,46.66133 9.01001,45.83461 8.61042,45.46257 7.6461,44.56477 7.27407,44.16517 6.37626,43.20086 6.03368,42.77575 5.20696,41.74984 4.89558,41.30136 4.14414,40.21909 3.86555,39.74955 3.19324,38.61644 2.94886,38.12822 2.35909,36.95002 2.15016,36.44561 1.64595,35.22835 1.47354,34.71032 1.05745,33.46019 0.92243,32.93118 0.59659,31.65454 0.49965,31.11725 0.32288,30.13743 h 10.17384 l 0.01377,-0.0027 0.01168,-0.0078 0.0078,-0.01168 0.0027,-0.01378 -0.0027,-0.01377 -0.0078,-0.01168 -0.01168,-0.0078 -0.01377,-0.0027 v -7.92 l 0.01377,-0.0027 0.01168,-0.0078 0.0078,-0.01168 0.0027,-0.01378 -0.0027,-0.01377 -0.0078,-0.01168 -0.01168,-0.0078 -0.01377,-0.0027 H 0.32288 L 0.36266,21.85313 0.59659,20.55651 0.73161,20.0275 1.05745,18.75086 1.22987,18.23283 1.64595,16.9827 1.85489,16.47829 2.35909,15.26103 2.60348,14.77281 3.19324,13.59461 3.47184,13.12507 4.14414,11.99196 4.45552,11.5433 5.20696,10.46103 5.54954,10.03592 6.37626,9.01001 6.7483,8.61042 7.6461,7.64611 8.0457,7.27407" />
      <path
         inkscape:connector-curvature="0"
         id="path1377"
         style="fill:none;stroke:#ff0000;stroke-width:1;stroke-linecap:butt;stroke-linejoin:miter;stroke-miterlimit:10;stroke-dasharray:none;stroke-opacity:1"
         d="m 25.34706,19.07823 v 14.0544 l -3.12447,-3.12535" />
      <path
         inkscape:connector-curvature="0"
         id="path1379"
         style="fill:none;stroke:#ff0000;stroke-width:1;stroke-linecap:butt;stroke-linejoin:miter;stroke-miterlimit:10;stroke-dasharray:none;stroke-opacity:1"
         d="m 33.13275,26.90534 v -6.2419 l -9.28528,5.76772 v 0 l -0.0085,0.0069 -0.0086,0.0066 -0.0087,0.0064 -0.009,0.0062 -0.0093,0.006 -0.0096,0.0059 -0.01005,0.0059 -0.01056,0.0058 -0.01115,0.0058 v 0 l -0.51132,0.23815 -0.53003,0.13912 -0.53676,0.04351 -0.53152,-0.0487 -0.5143,-0.1375 -0.4851,-0.22289 -0.44393,-0.30487 -0.39077,-0.38343 -0.32565,-0.4586 v 0 l -0.23476,-0.51274 -0.13698,-0.53085 -0.04227,-0.53707 0.04934,-0.53144 0.13788,-0.51393 0.22333,-0.48457 0.30571,-0.44332 0.38499,-0.39021 0.46119,-0.32525 0.78619,-0.40984" />
      <path
         inkscape:connector-curvature="0"
         id="path1381"
         style="fill:none;stroke:#ff0000;stroke-width:1;stroke-linecap:butt;stroke-linejoin:miter;stroke-miterlimit:10;stroke-dasharray:none;stroke-opacity:1"
         d="m 31.54743,33.13219 h -3.12095 v 0 L 27.86517,33.08184 27.337,32.93672 26.85074,32.70574 26.4152,32.39781 26.03914,32.02183 25.73137,31.58672 25.50065,31.10138 25.35577,30.57472 25.30553,30.01565 v -1.56267 0 l 0.05024,-0.55884 0.14488,-0.52654 0.23072,-0.4853 0.30777,-0.43514 0.37606,-0.37605 0.43554,-0.30802 0.48626,-0.23108 0.52817,-0.14519 0.56131,-0.05038 h 1.56268 -1.56268 v 0 L 27.86517,25.28604 27.337,25.14076 26.85074,24.90946 26.4152,24.60098 26.03914,24.2242 25.73137,23.78796 25.50065,23.30112 25.35577,22.77254 25.30553,22.21108 v 0 l 0.05024,-0.55884 0.14488,-0.52653 0.23072,-0.4853 0.30777,-0.43514 0.37606,-0.37605 0.43554,-0.30803 0.48626,-0.23107 0.52817,-0.1452 0.56131,-0.05038 h 3.12095" />
      <path
         inkscape:connector-curvature="0"
         id="path1383"
         style="fill:none;stroke:#ff0000;stroke-width:1;stroke-linecap:butt;stroke-linejoin:miter;stroke-miterlimit:10;stroke-dasharray:none;stroke-opacity:1"
         d="m 22.20271,24.52464 v 7.80369 l 10.92992,-3.11655" />
      <path
         inkscape:connector-curvature="0"
         id="path1385"
         style="fill:none;stroke:#ff0000;stroke-width:1;stroke-linecap:butt;stroke-linejoin:miter;stroke-miterlimit:10;stroke-dasharray:none;stroke-opacity:1"
         d="m 19.07823,26.8638 h 6.2419" />
      <path
         inkscape:connector-curvature="0"
         id="path1387"
         style="fill:none;stroke:#ff0000;stroke-width:1;stroke-linecap:butt;stroke-linejoin:miter;stroke-miterlimit:10;stroke-dasharray:none;stroke-opacity:1"
         d="m 22.46282,23.16175 h -4.17499 l 4.17499,7.51912 h -4.17499" />
      <path
         inkscape:connector-curvature="0"
         id="path1389"
         style="fill:none;stroke:#ff0000;stroke-width:1;stroke-linecap:butt;stroke-linejoin:miter;stroke-miterlimit:10;stroke-dasharray:none;stroke-opacity:1"
         d="M 29.39452,26.92131 H 25.28319" />
      <path
         inkscape:connector-curvature="0"
         id="path1391"
         style="fill:none;stroke:#ff0000;stroke-width:1;stroke-linecap:butt;stroke-linejoin:miter;stroke-miterlimit:10;stroke-dasharray:none;stroke-opacity:1"
         d="m 32.21348,23.16199 h 1.66971 v 0 l 0.3003,0.02694 0.28257,0.07764 0.26015,0.12357 0.23301,0.16475 0.2012,0.20114 0.16466,0.23279 0.12343,0.25965 0.07751,0.28177 0.02688,0.2991 v 0.83603 0 l -0.02688,0.29898 -0.07751,0.2817 -0.12343,0.25964 -0.16466,0.2328 -0.2012,0.20118 -0.23301,0.1648 -0.26015,0.12362 -0.28257,0.07768 -0.3003,0.02696 h -0.83604 0.83604 v 0 l 0.3003,0.02696 0.28257,0.07772 0.26015,0.12375 0.23301,0.16503 0.2012,0.20158 0.16466,0.23339 0.12343,0.26046 0.07751,0.28279 0.02688,0.30038 v 0 l -0.02688,0.29898 -0.07751,0.2817 -0.12343,0.25964 -0.16466,0.2328 -0.2012,0.20118 -0.23301,0.1648 -0.26015,0.12362 -0.28257,0.07768 -0.3003,0.02696 h -1.66971" />
    </g>
    <g
       transform="matrix(0.35277777,0,0,-0.35277777,80.425784,293.38366)"
       id="g1393">
      <path
         inkscape:connector-curvature="0"
         id="path1395"
         style="fill:none;stroke:#0000ff;stroke-width:0.75;stroke-linecap:butt;stroke-linejoin:miter;stroke-miterlimit:10;stroke-dasharray:none;stroke-opacity:1"
         d="M 6.31552,8.85123 6.43767,8.71172 7.64839,7.43024 7.78074,7.30037 9.0849,6.11412 9.2267,5.99463 10.61684,4.91042 10.76727,4.80199 12.23543,3.82602 12.39363,3.72928 13.93139,2.86713 14.09645,2.78263 15.69501,2.03926 15.86599,1.96748 17.5162,1.34714 17.69212,1.2885 19.38451,0.79473 19.56436,0.74957 21.28926,0.3852 21.47201,0.35377 21.71208,0.32178 v 9.99565 l 0.0027,0.01378 0.0078,0.01168 0.01168,0.0078 0.01378,0.0027 0.01377,-0.0027 0.01168,-0.0078 0.0078,-0.01168 0.0027,-0.01378 h 7.92 l 0.0027,0.01378 0.0078,0.01168 0.01168,0.0078 0.01378,0.0027 0.01377,-0.0027 0.01168,-0.0078 0.0078,-0.01168 0.0027,-0.01378 v -9.9898 l 1.19764,0.20599 0.18143,0.03832 1.70987,0.42937 0.17801,0.05194 1.6725,0.55746 0.17357,0.06525 1.62555,0.68235 0.16814,0.07819 1.56929,0.80334 0.16174,0.09068 1.50404,0.91972 0.15442,0.10266 1.43018,1.03083 0.14621,0.11404 1.34813,1.13604 0.13717,0.12478 1.25833,1.23474 0.12735,0.13479 1.16135,1.32638 0.11679,0.14404 1.05772,1.4104 0.10556,0.15246 0.34665,0.51586 0.60136,0.9705 0.09373,0.16 0.32343,0.57096 0.50946,0.98284 0.08135,0.16664 0.29371,0.62535 0.41929,0.98699 0.06852,0.17231 0.25747,0.67835 0.33154,0.98329 0.0553,0.177 0.21476,0.72929 0.2469,0.97215 0.04175,0.18067 0.1657,0.77747 0.1559,0.89623 h 0.36 -0.1506 -0.2094 -9.99665 l -0.01378,0.0027 -0.01168,0.0078 -0.0078,0.01167 -0.0027,0.01378 0.0027,0.01378 0.0078,0.01168 0.01168,0.0078 0.01378,0.0027 v 7.92 l -0.01378,0.0027 -0.01168,0.0078 -0.0078,0.01168 -0.0027,0.01377 0.0027,0.01378 0.0078,0.01168 0.01168,0.0078 0.01378,0.0027 h 9.99665 l -0.1559,0.89623 -0.1657,0.77747 -0.04175,0.18068 -0.2469,0.97214 -0.21476,0.72929 -0.0553,0.177 -0.33154,0.9833 -0.25747,0.67835 -0.06852,0.17231 -0.41929,0.98699 -0.29371,0.62535 -0.08135,0.16663 -0.50946,0.98285 -0.32343,0.57095 -0.09373,0.16 -0.60136,0.9705 -0.34665,0.51586 -0.10556,0.15246 -1.05772,1.41041 -0.11679,0.14404 -1.16135,1.32637 -0.12735,0.13479 -1.25833,1.23475 -0.13717,0.12478 -1.34813,1.13603 -0.14621,0.11405 -1.43018,1.03083 -0.15442,0.10266 -1.50404,0.91971 -0.16174,0.09069 -1.56929,0.80334 -0.16814,0.07819 -1.62554,0.68235 -0.17358,0.06525 -1.6725,0.55745 -0.17801,0.05194 -1.70987,0.42938 -0.18143,0.03833 -1.19764,0.20598 v -9.98981 l -0.0027,-0.01377 -0.0078,-0.01168 -0.01168,-0.0078 -0.01377,-0.0027 -0.01378,0.0027 -0.01168,0.0078 -0.0078,0.01168 -0.0027,0.01377 h -7.92 l -0.0027,-0.01377 -0.0078,-0.01168 -0.01168,-0.0078 -0.01377,-0.0027 -0.01378,0.0027 -0.01168,0.0078 -0.0078,0.01168 -0.0027,0.01377 v 9.99566 L 21.47201,51.12484 21.28926,51.0934 19.56436,50.72904 19.38451,50.68388 17.69212,50.1901 17.5162,50.13147 15.86599,49.51112 15.69501,49.43935 14.09645,48.69598 13.93139,48.61148 12.39363,47.74932 12.23543,47.65258 10.76727,46.67662 10.61684,46.56819 9.2267,45.48397 9.0849,45.36448 7.78074,44.17824 7.64839,44.04837 6.43767,42.76688 6.31552,42.62737 5.20519,41.258 5.09394,41.10965 4.09035,39.66022 3.99064,39.50388 3.65479,38.96043 3.09955,37.98272 3.01194,37.81928 2.70256,37.22099 2.23845,36.23507 2.16345,36.06548 1.88706,35.41341 1.51198,34.42731 1.45003,34.25253 1.21312,33.54841 0.92432,32.56979 0.87576,32.39083 0.68475,31.63706 0.47882,30.67314 0.44394,30.49102 0.31907,29.7713 h 9.99697 l 0.01377,-0.0027 0.01168,-0.0078 0.0078,-0.01168 0.0027,-0.01378 -0.0027,-0.01377 -0.0078,-0.01168 -0.01168,-0.0078 -0.01377,-0.0027 v -7.92 l 0.01378,-0.0027 0.01167,-0.0078 0.0078,-0.01168 0.0027,-0.01378 -0.0027,-0.01378 -0.0078,-0.01167 -0.01167,-0.0078 -0.01378,-0.0027 H 0.31907 l 0.12487,-0.71971 0.03488,-0.18212 0.20593,-0.96392 0.19101,-0.75377 0.04856,-0.17896 0.2888,-0.97862 0.23691,-0.70412 0.06195,-0.17478 0.37508,-0.9861 0.27639,-0.65207 0.075,-0.16959 0.46411,-0.98593 0.30938,-0.59828 0.08761,-0.16344 0.55524,-0.97771 0.33585,-0.54346 0.09971,-0.15634 1.00359,-1.44942 0.11125,-0.14836 1.11033,-1.36937" />
      <path
         inkscape:connector-curvature="0"
         id="path1397"
         style="fill:none;stroke:#ff0000;stroke-width:1;stroke-linecap:butt;stroke-linejoin:miter;stroke-miterlimit:10;stroke-dasharray:none;stroke-opacity:1"
         d="M 24.80415,18.7121 V 32.7665 L 21.67968,29.64115" />
      <path
         inkscape:connector-curvature="0"
         id="path1399"
         style="fill:none;stroke:#ff0000;stroke-width:1;stroke-linecap:butt;stroke-linejoin:miter;stroke-miterlimit:10;stroke-dasharray:none;stroke-opacity:1"
         d="m 32.77139,26.35236 v -6.2419 l -9.28528,5.76772 v 0 l -0.0085,0.0069 -0.0086,0.0066 -0.0087,0.0064 -0.009,0.0062 -0.0093,0.006 -0.0096,0.0059 -0.01006,0.0058 -0.01056,0.0058 -0.01114,0.0059 v 0 l -0.51133,0.23814 -0.53003,0.13913 -0.53676,0.0435 -0.53152,-0.0487 -0.5143,-0.1375 -0.4851,-0.22289 -0.44392,-0.30486 -0.39078,-0.38344 -0.32564,-0.45859 v 0 l -0.23477,-0.51275 -0.13697,-0.53084 -0.04228,-0.53708 0.04934,-0.53144 0.13788,-0.51393 0.22334,-0.48456 0.3057,-0.44333 0.38499,-0.39021 0.4612,-0.32524 0.78619,-0.40984" />
      <path
         inkscape:connector-curvature="0"
         id="path1401"
         style="fill:none;stroke:#ff0000;stroke-width:1;stroke-linecap:butt;stroke-linejoin:miter;stroke-miterlimit:10;stroke-dasharray:none;stroke-opacity:1"
         d="M 31.36675,32.76606 H 28.2458 v 0 L 27.68449,32.71571 27.15632,32.57059 26.67007,32.33961 26.23452,32.03167 25.85847,31.6557 25.55069,31.22059 25.31997,30.73525 25.1751,30.20859 25.12485,29.64952 v -1.56268 0 l 0.05025,-0.55883 0.14487,-0.52654 0.23072,-0.4853 0.30778,-0.43514 0.37605,-0.37605 0.43555,-0.30803 0.48625,-0.23107 0.52817,-0.14519 0.56131,-0.05039 h 1.56268 -1.56268 v 0 l -0.56131,-0.05039 -0.52817,-0.14528 -0.48625,-0.2313 -0.43555,-0.30848 -0.37605,-0.37678 -0.30778,-0.43624 -0.23072,-0.48684 -0.14487,-0.52858 -0.05025,-0.56146 v 0 l 0.05025,-0.55884 0.14487,-0.52654 0.23072,-0.4853 0.30778,-0.43514 0.37605,-0.37604 0.43555,-0.30803 0.48625,-0.23108 0.52817,-0.14519 0.56131,-0.05038 h 3.12095" />
      <path
         inkscape:connector-curvature="0"
         id="path1403"
         style="fill:none;stroke:#ff0000;stroke-width:1;stroke-linecap:butt;stroke-linejoin:miter;stroke-miterlimit:10;stroke-dasharray:none;stroke-opacity:1"
         d="m 21.84135,24.34535 v 7.80369 L 32.77128,29.0325" />
      <path
         inkscape:connector-curvature="0"
         id="path1405"
         style="fill:none;stroke:#ff0000;stroke-width:1;stroke-linecap:butt;stroke-linejoin:miter;stroke-miterlimit:10;stroke-dasharray:none;stroke-opacity:1"
         d="m 18.71688,26.68452 h 6.24189" />
      <path
         inkscape:connector-curvature="0"
         id="path1407"
         style="fill:none;stroke:#ff0000;stroke-width:1;stroke-linecap:butt;stroke-linejoin:miter;stroke-miterlimit:10;stroke-dasharray:none;stroke-opacity:1"
         d="m 22.0799,20.30051 h -5.14632 l 5.14632,9.26848 h -5.14632" />
      <path
         inkscape:connector-curvature="0"
         id="path1409"
         style="fill:none;stroke:#ff0000;stroke-width:1;stroke-linecap:butt;stroke-linejoin:miter;stroke-miterlimit:10;stroke-dasharray:none;stroke-opacity:1"
         d="M 30.62429,24.93475 H 25.55645" />
      <path
         inkscape:connector-curvature="0"
         id="path1411"
         style="fill:none;stroke:#ff0000;stroke-width:1;stroke-linecap:butt;stroke-linejoin:miter;stroke-miterlimit:10;stroke-dasharray:none;stroke-opacity:1"
         d="m 36.15989,20.30051 v 9.26848 l -2.0605,-2.06109" />
    </g>
    <g
       transform="matrix(0.35277777,0,0,-0.35277777,36.929533,271.53027)"
       id="g1413">
      <path
         inkscape:connector-curvature="0"
         id="path1415"
         style="fill:none;stroke:#0000ff;stroke-width:0.75;stroke-linecap:butt;stroke-linejoin:miter;stroke-miterlimit:10;stroke-dasharray:none;stroke-opacity:1"
         d="M 0,87.15881 V 76.85242 h 10.49672 l 0.01377,-0.0027 0.01168,-0.0078 0.0078,-0.01168 0.0027,-0.01378 -0.0027,-0.01377 -0.0078,-0.01168 -0.01168,-0.0078 -0.01377,-0.0027 V 68.8605 l 0.01377,-0.0027 0.01168,-0.0078 0.0078,-0.01167 0.0027,-0.01378 -0.0027,-0.01378 -0.0078,-0.01168 -0.01168,-0.0078 -0.01377,-0.0027 H 0 V 47.72443 h 10.64213 l 0.01377,-0.0027 0.01168,-0.0078 0.0078,-0.01168 0.0027,-0.01378 -0.0027,-0.01378 -0.0078,-0.01168 -0.01168,-0.0078 -0.01377,-0.0027 v -7.92 l 0.01377,-0.0027 0.01168,-0.0078 0.0078,-0.01168 0.0027,-0.01378 -0.0027,-0.01378 -0.0078,-0.01167 -0.01168,-0.0078 -0.01377,-0.0027 H 0 V 18.59643 h 10.30987 l 0.01378,-0.0027 0.01168,-0.0078 0.0078,-0.01168 0.0027,-0.01378 -0.0027,-0.01377 -0.0078,-0.01168 -0.01168,-0.0078 -0.01378,-0.0027 v -7.92 l 0.01378,-0.0027 0.01168,-0.0078 0.0078,-0.01168 0.0027,-0.01378 -0.0027,-0.01377 -0.0078,-0.01168 -0.01168,-0.0078 -0.01378,-0.0027 L 0,10.53208 V 0 h 0.02176 0.9673 0.9592 0.94966 0.9387 0.92633 0.91255 0.89741 0.88092 0.8631 0.84398 0.8236 0.80198 0.77915 0.75514 0.73001 0.70378 0.67647 0.64817 0.61888 0.58866 0.55756 0.52561 0.4929 0.45941 0.42525 0.39044 0.35505 0.31913 0.28272 0.2459 0.20869 0.17117 0.13341 0.09544 0.05732 l 0.06107,2.67357 0.17946,7.89769 0.49815,21.51041 0.48826,21.90291 h 3.25299 l 0.19309,1.84822 0.07733,2.13207 -0.07733,2.13208 -0.23161,2.12087 -0.38465,2.09852 -0.53567,2.06514 -0.68388,2.02089 -0.8285,1.96605 -0.96876,1.90084 -1.10393,1.82567 -1.2333,1.7409 -1.35619,1.64697 -1.47194,1.54438 -1.57996,1.43368 -1.67969,1.31545 -1.77057,1.1903 -1.85215,1.05889 -1.924,0.92192 -1.98575,0.7801 -2.03703,0.6342 L 1.97455,86.84666 0,87.15881" />
      <path
         inkscape:connector-curvature="0"
         id="path1417"
         style="fill:none;stroke:#ff0000;stroke-width:1;stroke-linecap:butt;stroke-linejoin:miter;stroke-miterlimit:10;stroke-dasharray:none;stroke-opacity:1"
         d="m 20.52526,10.94361 v 7.24095 l -1.60975,-1.61021" />
      <path
         inkscape:connector-curvature="0"
         id="path1419"
         style="fill:none;stroke:#ff0000;stroke-width:1;stroke-linecap:butt;stroke-linejoin:miter;stroke-miterlimit:10;stroke-dasharray:none;stroke-opacity:1"
         d="m 21.00681,40.29372 h -3.01869 l 2.78937,4.49052 v 0 l 0.0033,0.0041 0.0032,0.0042 0.0031,0.0042 0.003,0.0043 0.0029,0.0045 0.0029,0.0046 0.0028,0.0049 0.0028,0.0051 0.0028,0.0054 v 0 l 0.11518,0.24728 0.06728,0.25633 0.02104,0.25959 -0.02355,0.25705 -0.0665,0.24873 -0.10779,0.2346 -0.14744,0.21469 -0.18544,0.18899 -0.22178,0.15749 v 0 L 20.00731,47.00382 19.75059,47.07007 19.4909,47.09056 19.23389,47.0667 18.98534,47.00002 18.751,46.89201 18.5366,46.74416 18.34788,46.55798 18.19059,46.33493 17.99238,45.95472" />
      <path
         inkscape:connector-curvature="0"
         id="path1421"
         style="fill:none;stroke:#ff0000;stroke-width:1;stroke-linecap:butt;stroke-linejoin:miter;stroke-miterlimit:10;stroke-dasharray:none;stroke-opacity:1"
         d="m 17.52531,66.06295 h 1.44077 v 0 l 0.25913,0.02325 0.24382,0.06699 0.22448,0.10663 0.20107,0.14216 0.1736,0.17356 0.14209,0.20087 0.10651,0.22406 0.06688,0.24312 0.02319,0.2581 v 0.72139 0 l -0.02319,0.25799 -0.06688,0.24307 -0.10651,0.22404 -0.14209,0.20088 -0.1736,0.1736 -0.20107,0.1422 -0.22448,0.10667 -0.24382,0.06704 -0.25913,0.02325 h -0.7214 0.7214 v 0 l 0.25913,0.02326 0.24382,0.06707 0.22448,0.10678 0.20107,0.14241 0.1736,0.17394 0.14209,0.20138 0.10651,0.22475 0.06688,0.24402 0.02319,0.25919 v 0 l -0.02319,0.25799 -0.06688,0.24307 -0.10651,0.22404 -0.14209,0.20088 -0.1736,0.1736 -0.20107,0.1422 -0.22448,0.10667 -0.24382,0.06703 -0.25913,0.02326 h -1.44077" />
      <path
         inkscape:connector-curvature="0"
         id="path1423"
         style="fill:none;stroke:#ff0000;stroke-width:1;stroke-linecap:butt;stroke-linejoin:miter;stroke-miterlimit:10;stroke-dasharray:none;stroke-opacity:1"
         d="M 8.14535,61.69955 6.05228,58.67212 3.95881,61.69955" />
      <path
         inkscape:connector-curvature="0"
         id="path1425"
         style="fill:none;stroke:#ff0000;stroke-width:1;stroke-linecap:butt;stroke-linejoin:miter;stroke-miterlimit:10;stroke-dasharray:none;stroke-opacity:1"
         d="M 6.05228,58.91575 V 55.4231" />
      <path
         inkscape:connector-curvature="0"
         id="path1427"
         style="fill:none;stroke:#ff0000;stroke-width:1;stroke-linecap:butt;stroke-linejoin:miter;stroke-miterlimit:10;stroke-dasharray:none;stroke-opacity:1"
         d="M 13.9313,58.56133 H 10.49966" />
      <path
         inkscape:connector-curvature="0"
         id="path1429"
         style="fill:none;stroke:#ff0000;stroke-width:1;stroke-linecap:butt;stroke-linejoin:miter;stroke-miterlimit:10;stroke-dasharray:none;stroke-opacity:1"
         d="m 19.07206,55.42324 h -2.78735 l 2.5756,4.14639 v 0 l 0.0031,0.0038 0.003,0.0038 0.0028,0.0039 0.0028,0.004 0.0027,0.0041 0.0026,0.0043 0.0026,0.0045 0.0026,0.0047 0.0026,0.005 v 0 l 0.10634,0.22833 0.06213,0.23669 0.01943,0.2397 -0.02175,0.23735 -0.0614,0.22966 -0.09953,0.21662 -0.13615,0.19824 -0.17122,0.1745 -0.20479,0.14542 v 0 L 18.1492,61.61908 17.91215,61.68024 17.67232,61.6992 17.435,61.67717 17.2055,61.6156 16.98912,61.51587 16.79115,61.37935 16.6169,61.20744 16.47166,61.00148 16.28864,60.65041" />
    </g>
    <g
       transform="matrix(0.35277777,0,0,-0.35277777,72.726748,271.0092)"
       id="g1431">
      <path
         inkscape:connector-curvature="0"
         id="path1433"
         style="fill:none;stroke:#0000ff;stroke-width:0.75;stroke-linecap:butt;stroke-linejoin:miter;stroke-miterlimit:10;stroke-dasharray:none;stroke-opacity:1"
         d="m 20.54941,0 h 0.17117 0.13341 0.09543 0.05732 l 0.06108,2.67357 0.17946,7.89769 0.49815,21.51041 0.48826,21.90291 h 3.253 l 0.19308,1.84822 0.07733,2.13207 -0.07733,2.13208 -0.23161,2.12087 -0.38465,2.09852 -0.53567,2.06514 -0.68388,2.02089 -0.8285,1.96605 -0.96876,1.90084 -1.10393,1.82567 -1.2333,1.7409 -1.35619,1.64697 -1.47194,1.54438 -1.57996,1.43368 -1.67969,1.31545 -1.77057,1.1903 -1.85215,1.05889 -1.92401,0.92192 -1.98574,0.7801 -2.03704,0.6342 L 1.97454,86.84666 0,87.15881 V 76.85242 h 10.49672 l 0.01377,-0.0027 0.01168,-0.0078 0.0078,-0.01168 0.0027,-0.01378 -0.0027,-0.01377 -0.0078,-0.01168 -0.01168,-0.0078 -0.01377,-0.0027 V 68.8605 l 0.01377,-0.0027 0.01168,-0.0078 0.0078,-0.01167 0.0027,-0.01378 -0.0027,-0.01378 -0.0078,-0.01168 -0.01168,-0.0078 -0.01377,-0.0027 H 0 V 47.72443 h 10.64213 l 0.01377,-0.0027 0.01168,-0.0078 0.0078,-0.01168 0.0027,-0.01378 -0.0027,-0.01378 -0.0078,-0.01168 -0.01168,-0.0078 -0.01377,-0.0027 v -7.92 l 0.01377,-0.0027 0.01168,-0.0078 0.0078,-0.01168 0.0027,-0.01378 -0.0027,-0.01378 -0.0078,-0.01167 -0.01168,-0.0078 -0.01377,-0.0027 H 0 V 18.59643 h 10.30987 l 0.01378,-0.0027 0.01168,-0.0078 0.0078,-0.01168 0.0027,-0.01378 -0.0027,-0.01377 -0.0078,-0.01168 -0.01168,-0.0078 -0.01378,-0.0027 v -7.92 l 0.01378,-0.0027 0.01168,-0.0078 0.0078,-0.01168 0.0027,-0.01378 -0.0027,-0.01377 -0.0078,-0.01168 -0.01168,-0.0078 -0.01378,-0.0027 L 0,10.53208 V 0 h 0.02176 0.9673 0.9592 0.94966 0.9387 0.92632 0.91255 0.89742 0.88092 0.8631 0.84399 0.8236 0.80197 0.77915 0.75514 0.73001 0.70377 0.67648 0.64817 0.61887 0.58867 0.55756 0.52562 0.49288 0.45942 0.42524 0.39045 0.35505 0.31913 0.28272 0.24589 0.2087" />
      <path
         inkscape:connector-curvature="0"
         id="path1435"
         style="fill:none;stroke:#ff0000;stroke-width:1;stroke-linecap:butt;stroke-linejoin:miter;stroke-miterlimit:10;stroke-dasharray:none;stroke-opacity:1"
         d="m 20.52526,10.94361 v 7.24095 l -1.60975,-1.61021" />
      <path
         inkscape:connector-curvature="0"
         id="path1437"
         style="fill:none;stroke:#ff0000;stroke-width:1;stroke-linecap:butt;stroke-linejoin:miter;stroke-miterlimit:10;stroke-dasharray:none;stroke-opacity:1"
         d="m 21.00681,40.29372 h -3.01869 l 2.78937,4.49052 v 0 l 0.0033,0.0041 0.0032,0.0042 0.0031,0.0042 0.003,0.0043 0.0029,0.0045 0.0029,0.0046 0.0028,0.0049 0.0028,0.0051 0.0028,0.0054 v 0 l 0.11517,0.24728 0.06728,0.25633 0.02104,0.25959 -0.02355,0.25705 -0.0665,0.24873 -0.10779,0.2346 -0.14744,0.21469 -0.18544,0.18899 -0.22178,0.15749 v 0 l -0.24797,0.11353 -0.25673,0.06625 -0.25974,0.02044 -0.25701,-0.02386 -0.24855,-0.06668 -0.23434,-0.10801 -0.2144,-0.14785 -0.18872,-0.18618 -0.15729,-0.22305 -0.1982,-0.38021" />
      <path
         inkscape:connector-curvature="0"
         id="path1439"
         style="fill:none;stroke:#ff0000;stroke-width:1;stroke-linecap:butt;stroke-linejoin:miter;stroke-miterlimit:10;stroke-dasharray:none;stroke-opacity:1"
         d="m 17.52531,66.06295 h 1.44077 v 0 l 0.25912,0.02325 0.24383,0.06699 0.22448,0.10663 0.20107,0.14216 0.1736,0.17356 0.14208,0.20087 0.10651,0.22406 0.06688,0.24312 0.0232,0.2581 v 0.72139 0 l -0.0232,0.25799 -0.06688,0.24307 -0.10651,0.22404 -0.14208,0.20088 -0.1736,0.1736 -0.20107,0.1422 -0.22448,0.10667 -0.24383,0.06704 -0.25912,0.02325 h -0.7214 0.7214 v 0 l 0.25912,0.02326 0.24383,0.06707 0.22448,0.10678 0.20107,0.14241 0.1736,0.17394 0.14208,0.20138 0.10651,0.22475 0.06688,0.24402 0.0232,0.25919 v 0 l -0.0232,0.25799 -0.06688,0.24307 -0.10651,0.22404 -0.14208,0.20088 -0.1736,0.1736 -0.20107,0.1422 -0.22448,0.10667 -0.24383,0.06703 -0.25912,0.02326 h -1.44077" />
      <path
         inkscape:connector-curvature="0"
         id="path1441"
         style="fill:none;stroke:#ff0000;stroke-width:1;stroke-linecap:butt;stroke-linejoin:miter;stroke-miterlimit:10;stroke-dasharray:none;stroke-opacity:1"
         d="M 7.79711,64.42354 5.70404,61.3961 3.61057,64.42354" />
      <path
         inkscape:connector-curvature="0"
         id="path1443"
         style="fill:none;stroke:#ff0000;stroke-width:1;stroke-linecap:butt;stroke-linejoin:miter;stroke-miterlimit:10;stroke-dasharray:none;stroke-opacity:1"
         d="M 5.70404,61.63973 V 58.14708" />
      <path
         inkscape:connector-curvature="0"
         id="path1445"
         style="fill:none;stroke:#ff0000;stroke-width:1;stroke-linecap:butt;stroke-linejoin:miter;stroke-miterlimit:10;stroke-dasharray:none;stroke-opacity:1"
         d="M 13.58306,61.28531 H 10.15142" />
      <path
         inkscape:connector-curvature="0"
         id="path1447"
         style="fill:none;stroke:#ff0000;stroke-width:1;stroke-linecap:butt;stroke-linejoin:miter;stroke-miterlimit:10;stroke-dasharray:none;stroke-opacity:1"
         d="m 19.42077,59.54253 h -3.48478 l 1.39171,4.88081" />
      <path
         inkscape:connector-curvature="0"
         id="path1449"
         style="fill:none;stroke:#ff0000;stroke-width:1;stroke-linecap:butt;stroke-linejoin:miter;stroke-miterlimit:10;stroke-dasharray:none;stroke-opacity:1"
         d="m 18.3762,58.14728 v 2.78735" />
    </g>
    <g
       transform="matrix(0.35277777,0,0,-0.35277777,61.002769,271.26973)"
       id="g1451">
      <path
         inkscape:connector-curvature="0"
         id="path1453"
         style="fill:none;stroke:#0000ff;stroke-width:0.75;stroke-linecap:butt;stroke-linejoin:miter;stroke-miterlimit:10;stroke-dasharray:none;stroke-opacity:1"
         d="M 0,87.15881 V 76.85242 h 10.49672 l 0.01377,-0.0027 0.01168,-0.0078 0.0078,-0.01168 0.0027,-0.01378 -0.0027,-0.01377 -0.0078,-0.01168 -0.01168,-0.0078 -0.01377,-0.0027 V 68.8605 l 0.01377,-0.0027 0.01168,-0.0078 0.0078,-0.01167 0.0027,-0.01378 -0.0027,-0.01378 -0.0078,-0.01168 -0.01168,-0.0078 -0.01377,-0.0027 H 0 V 47.72443 h 10.64704 l 0.01378,-0.0027 0.01168,-0.0078 0.0078,-0.01168 0.0027,-0.01378 -0.0027,-0.01378 -0.0078,-0.01168 -0.01168,-0.0078 -0.01378,-0.0027 v -7.92 l 0.01378,-0.0027 0.01168,-0.0078 0.0078,-0.01168 0.0027,-0.01378 -0.0027,-0.01378 -0.0078,-0.01167 -0.01168,-0.0078 -0.01378,-0.0027 H 0 V 18.59643 h 10.31604 l 0.01377,-0.0027 0.01168,-0.0078 0.0078,-0.01168 0.0027,-0.01378 -0.0027,-0.01377 -0.0078,-0.01168 -0.01168,-0.0078 -0.01377,-0.0027 v -7.92 l 0.01378,-0.0027 0.01167,-0.0078 0.0078,-0.01168 0.0027,-0.01378 -0.0027,-0.01377 -0.0078,-0.01168 -0.01167,-0.0078 -0.01378,-0.0027 L 0,10.53208 V 0 h 21.02103 l 1.22697,53.98454 3.23868,4e-5 0.19308,1.84822 0.07734,2.13207 -0.07734,2.13208 -0.2316,2.12087 -0.38465,2.09852 -0.53567,2.06514 -0.68388,2.02089 -0.8285,1.96605 -0.96876,1.90084 -1.10393,1.82567 -1.2333,1.74089 -1.35619,1.64698 -1.47194,1.54438 -1.57997,1.43368 -1.67967,1.31545 -1.77058,1.1903 -1.85215,1.05889 -1.92401,0.92192 -1.98574,0.7801 -2.03704,0.6342 L 1.97455,86.84666 0,87.15881" />
      <path
         inkscape:connector-curvature="0"
         id="path1455"
         style="fill:none;stroke:#ff0000;stroke-width:1;stroke-linecap:butt;stroke-linejoin:miter;stroke-miterlimit:10;stroke-dasharray:none;stroke-opacity:1"
         d="m 20.53868,10.94094 v 7.24628 l -1.61094,-1.61139" />
      <path
         inkscape:connector-curvature="0"
         id="path1457"
         style="fill:none;stroke:#ff0000;stroke-width:1;stroke-linecap:butt;stroke-linejoin:miter;stroke-miterlimit:10;stroke-dasharray:none;stroke-opacity:1"
         d="m 21.01442,40.2928 h -3.0195 l 2.79011,4.49173 v 0 l 0.0033,0.0041 0.0032,0.0042 0.0031,0.0042 0.003,0.0043 0.0029,0.0045 0.0029,0.0047 0.0028,0.0049 0.0028,0.0051 0.0028,0.0054 v 0 l 0.1152,0.24736 0.0673,0.2564 0.02104,0.25966 -0.02356,0.25711 -0.06651,0.24879 -0.10782,0.23467 -0.14748,0.21475 -0.18549,0.18904 -0.22184,0.15753 v 0 L 20.01463,47.0048 19.75784,47.07107 19.4981,47.09148 19.24101,47.0676 18.9924,47.00091 18.758,46.89287 18.54354,46.74499 18.35477,46.55875 18.19744,46.33564 17.99918,45.95533" />
      <path
         inkscape:connector-curvature="0"
         id="path1459"
         style="fill:none;stroke:#ff0000;stroke-width:1;stroke-linecap:butt;stroke-linejoin:miter;stroke-miterlimit:10;stroke-dasharray:none;stroke-opacity:1"
         d="m 17.52531,66.06295 h 1.44077 v 0 l 0.25912,0.02325 0.24383,0.06699 0.22448,0.10663 0.20107,0.14216 0.1736,0.17356 0.14208,0.20087 0.10651,0.22406 0.06688,0.24312 0.0232,0.2581 v 0.72139 0 l -0.0232,0.25799 -0.06688,0.24307 -0.10651,0.22404 -0.14208,0.20088 -0.1736,0.1736 -0.20107,0.1422 -0.22448,0.10667 -0.24383,0.06704 -0.25912,0.02325 h -0.7214 0.7214 v 0 l 0.25912,0.02326 0.24383,0.06707 0.22448,0.10678 0.20107,0.14241 0.1736,0.17394 0.14208,0.20138 0.10651,0.22475 0.06688,0.24402 0.0232,0.25919 v 0 l -0.0232,0.25799 -0.06688,0.24307 -0.10651,0.22404 -0.14208,0.20088 -0.1736,0.1736 -0.20107,0.1422 -0.22448,0.10667 -0.24383,0.06703 -0.25912,0.02326 h -1.44077" />
      <path
         inkscape:connector-curvature="0"
         id="path1461"
         style="fill:none;stroke:#ff0000;stroke-width:1;stroke-linecap:butt;stroke-linejoin:miter;stroke-miterlimit:10;stroke-dasharray:none;stroke-opacity:1"
         d="M 8.14582,61.69955 6.05275,58.67212 3.95929,61.69955" />
      <path
         inkscape:connector-curvature="0"
         id="path1463"
         style="fill:none;stroke:#ff0000;stroke-width:1;stroke-linecap:butt;stroke-linejoin:miter;stroke-miterlimit:10;stroke-dasharray:none;stroke-opacity:1"
         d="M 6.05275,58.91574 V 55.4231" />
      <path
         inkscape:connector-curvature="0"
         id="path1465"
         style="fill:none;stroke:#ff0000;stroke-width:1;stroke-linecap:butt;stroke-linejoin:miter;stroke-miterlimit:10;stroke-dasharray:none;stroke-opacity:1"
         d="M 13.93178,58.56133 H 10.50013" />
      <path
         inkscape:connector-curvature="0"
         id="path1467"
         style="fill:none;stroke:#ff0000;stroke-width:1;stroke-linecap:butt;stroke-linejoin:miter;stroke-miterlimit:10;stroke-dasharray:none;stroke-opacity:1"
         d="m 16.28471,55.42349 h 1.39367 v 0 l 0.25066,0.02249 0.23586,0.0648 0.21713,0.10315 0.1945,0.1375 0.16793,0.1679 0.13744,0.1943 0.10303,0.21673 0.06469,0.23518 0.02244,0.24966 v 0.69782 0 l -0.02244,0.24955 -0.06469,0.23513 -0.10303,0.21671 -0.13744,0.19432 -0.16793,0.16792 -0.1945,0.13755 -0.21713,0.10319 -0.23586,0.06484 -0.25066,0.02249 h -0.69782 0.69782 v 0 l 0.25066,0.02251 0.23586,0.06487 0.21713,0.10329 0.1945,0.13776 0.16793,0.16825 0.13744,0.19481 0.10303,0.2174 0.06469,0.23603 0.02244,0.25073 v 0 l -0.02244,0.24955 -0.06469,0.23513 -0.10303,0.21671 -0.13744,0.19432 -0.16793,0.16792 -0.1945,0.13755 -0.21713,0.10319 -0.23586,0.06484 -0.25066,0.02249 h -1.39367" />
    </g>
    <g
       transform="matrix(0.35277777,0,0,-0.35277777,49.241865,271.53027)"
       id="g1469">
      <path
         inkscape:connector-curvature="0"
         id="path1471"
         style="fill:none;stroke:#0000ff;stroke-width:0.75;stroke-linecap:butt;stroke-linejoin:miter;stroke-miterlimit:10;stroke-dasharray:none;stroke-opacity:1"
         d="M 0,87.15881 V 76.85242 h 10.49672 l 0.01377,-0.0027 0.01168,-0.0078 0.0078,-0.01168 0.0027,-0.01378 -0.0027,-0.01377 -0.0078,-0.01168 -0.01168,-0.0078 -0.01377,-0.0027 V 68.8605 l 0.01377,-0.0027 0.01168,-0.0078 0.0078,-0.01167 0.0027,-0.01378 -0.0027,-0.01378 -0.0078,-0.01168 -0.01168,-0.0078 -0.01377,-0.0027 H 0 V 47.72443 h 10.63976 l 0.01378,-0.0027 0.01168,-0.0078 0.0078,-0.01167 0.0027,-0.01378 -0.0027,-0.01378 -0.0078,-0.01168 -0.01168,-0.0078 -0.01378,-0.0027 v -7.92 l 0.01378,-0.0027 0.01168,-0.0078 0.0078,-0.01168 0.0027,-0.01378 -0.0027,-0.01378 -0.0078,-0.01168 -0.01168,-0.0078 -0.01378,-0.0027 H 0 V 18.59643 h 10.31516 l 0.01378,-0.0027 0.01168,-0.0078 0.0078,-0.01168 0.0027,-0.01378 -0.0027,-0.01377 -0.0078,-0.01168 -0.01168,-0.0078 -0.01378,-0.0027 v -7.92 l 0.01378,-0.0027 0.01168,-0.0078 0.0078,-0.01168 0.0027,-0.01378 -0.0027,-0.01377 -0.0078,-0.01168 -0.01168,-0.0078 -0.01378,-0.0027 L 0,10.53208 V 0 h 21.00197 l 0.25936,10.57129 0.96759,43.41329 h 3.25777 l 0.19308,1.84822 0.07733,2.13207 -0.07733,2.13208 -0.23161,2.12087 -0.38464,2.09852 -0.53568,2.06514 -0.68388,2.02089 -0.8285,1.96605 -0.96876,1.90084 -1.10393,1.82567 -1.2333,1.7409 -1.35618,1.64697 -1.47195,1.54438 -1.57996,1.43368 -1.67969,1.31545 -1.77057,1.1903 -1.85215,1.05889 -1.92401,0.92192 -1.98574,0.7801 -2.03704,0.6342 L 1.97454,86.84666 0,87.15881" />
      <path
         inkscape:connector-curvature="0"
         id="path1473"
         style="fill:none;stroke:#ff0000;stroke-width:1;stroke-linecap:butt;stroke-linejoin:miter;stroke-miterlimit:10;stroke-dasharray:none;stroke-opacity:1"
         d="m 20.53737,10.9411 v 7.24597 L 18.9265,16.57574" />
      <path
         inkscape:connector-curvature="0"
         id="path1475"
         style="fill:none;stroke:#ff0000;stroke-width:1;stroke-linecap:butt;stroke-linejoin:miter;stroke-miterlimit:10;stroke-dasharray:none;stroke-opacity:1"
         d="m 21.00232,40.29444 h -3.01805 l 2.78877,4.48957 v 0 l 0.0033,0.0041 0.0032,0.0042 0.0031,0.0042 0.003,0.0043 0.0029,0.0045 0.0029,0.0046 0.0028,0.0049 0.0028,0.0051 0.0028,0.0054 v 0 l 0.11515,0.24723 0.06727,0.25628 0.02103,0.25953 -0.02355,0.257 -0.06648,0.24867 -0.10777,0.23455 -0.14741,0.21464 -0.18539,0.18895 -0.22174,0.15745 v 0 l -0.24792,0.11352 -0.25667,0.06623 -0.25968,0.02044 -0.25696,-0.02386 -0.2485,-0.06667 -0.23429,-0.10798 -0.21435,-0.14781 -0.18868,-0.18615 -0.15726,-0.223 -0.19816,-0.38013" />
      <path
         inkscape:connector-curvature="0"
         id="path1477"
         style="fill:none;stroke:#ff0000;stroke-width:1;stroke-linecap:butt;stroke-linejoin:miter;stroke-miterlimit:10;stroke-dasharray:none;stroke-opacity:1"
         d="m 17.52531,66.06295 h 1.44077 v 0 l 0.25912,0.02325 0.24383,0.06699 0.22448,0.10663 0.20107,0.14216 0.1736,0.17356 0.14208,0.20087 0.10651,0.22406 0.06688,0.24312 0.0232,0.2581 v 0.72139 0 l -0.0232,0.25799 -0.06688,0.24307 -0.10651,0.22404 -0.14208,0.20088 -0.1736,0.1736 -0.20107,0.1422 -0.22448,0.10667 -0.24383,0.06704 -0.25912,0.02325 h -0.7214 0.7214 v 0 l 0.25912,0.02326 0.24383,0.06707 0.22448,0.10678 0.20107,0.14241 0.1736,0.17394 0.14208,0.20138 0.10651,0.22475 0.06688,0.24402 0.0232,0.25919 v 0 l -0.0232,0.25799 -0.06688,0.24307 -0.10651,0.22404 -0.14208,0.20088 -0.1736,0.1736 -0.20107,0.1422 -0.22448,0.10667 -0.24383,0.06703 -0.25912,0.02326 h -1.44077" />
      <path
         inkscape:connector-curvature="0"
         id="path1479"
         style="fill:none;stroke:#ff0000;stroke-width:1;stroke-linecap:butt;stroke-linejoin:miter;stroke-miterlimit:10;stroke-dasharray:none;stroke-opacity:1"
         d="M 8.84187,61.69955 6.7488,58.67212 4.65534,61.69955" />
      <path
         inkscape:connector-curvature="0"
         id="path1481"
         style="fill:none;stroke:#ff0000;stroke-width:1;stroke-linecap:butt;stroke-linejoin:miter;stroke-miterlimit:10;stroke-dasharray:none;stroke-opacity:1"
         d="M 6.7488,58.91574 V 55.4231" />
      <path
         inkscape:connector-curvature="0"
         id="path1483"
         style="fill:none;stroke:#ff0000;stroke-width:1;stroke-linecap:butt;stroke-linejoin:miter;stroke-miterlimit:10;stroke-dasharray:none;stroke-opacity:1"
         d="M 14.62783,58.56133 H 11.19618" />
      <path
         inkscape:connector-curvature="0"
         id="path1485"
         style="fill:none;stroke:#ff0000;stroke-width:1;stroke-linecap:butt;stroke-linejoin:miter;stroke-miterlimit:10;stroke-dasharray:none;stroke-opacity:1"
         d="m 18.37621,55.42329 v 6.27607 l -1.39525,-1.39565" />
    </g>
  </g>
</svg>
