<?xml version="1.0" encoding="UTF-8" standalone="no"?>
<!-- Created with Inkscape (http://www.inkscape.org/) -->

<svg
   xmlns:dc="http://purl.org/dc/elements/1.1/"
   xmlns:cc="http://creativecommons.org/ns#"
   xmlns:rdf="http://www.w3.org/1999/02/22-rdf-syntax-ns#"
   xmlns:svg="http://www.w3.org/2000/svg"
   xmlns="http://www.w3.org/2000/svg"
   xmlns:sodipodi="http://sodipodi.sourceforge.net/DTD/sodipodi-0.dtd"
   xmlns:inkscape="http://www.inkscape.org/namespaces/inkscape"
   width="20in"
   height="12in"
   viewBox="0 0 508.00001 304.80001"
   version="1.1"
   id="svg8"
   inkscape:version="0.92.2 5c3e80d, 2017-08-06"
   sodipodi:docname="half inch spacer bed spacer.svg">
  <sodipodi:namedview
     id="base"
     pagecolor="#ffffff"
     bordercolor="#666666"
     borderopacity="1.0"
     inkscape:pageopacity="0.0"
     inkscape:pageshadow="2"
     inkscape:zoom="0.68200769"
     inkscape:cx="391.2"
     inkscape:cy="317.18689"
     inkscape:document-units="mm"
     inkscape:current-layer="layer1"
     showgrid="false"
     units="in"
     inkscape:window-width="1920"
     inkscape:window-height="1080"
     inkscape:window-x="231"
     inkscape:window-y="54"
     inkscape:window-maximized="0"
     inkscape:snap-nodes="false"
     inkscape:snap-others="false" />
  <defs
     id="defs2" />
  <metadata
     id="metadata5">
    <rdf:RDF>
      <cc:Work
         rdf:about="">
        <dc:format>image/svg+xml</dc:format>
        <dc:type
           rdf:resource="http://purl.org/dc/dcmitype/StillImage" />
        <dc:title />
      </cc:Work>
    </rdf:RDF>
  </metadata>
  <g
     inkscape:label="Layer 1"
     inkscape:groupmode="layer"
     id="layer1"
     transform="translate(0,7.8000168)">
    <g
       id="g6056"
       transform="translate(4.1933168,14.959575)">
      <g
         id="g6019">
        <path
           id="path5771"
           inkscape:label="part"
           style="fill:none;stroke:#000000;stroke-width:0.0508"
           d="m 35.6616,169.5704 h 5.4864 v 0 h 5.2832 v 0 h 5.3848 v 0 h 5.2832 v 0 h 5.3848 v 0 h 5.2832 v 0 h 5.3848 v 0 h 5.2832 v 0 H 83.82 v 0 h 5.2832 v 0 h 5.3848 v 0 h 5.2832 v 0 h 5.3848 v 0 h 5.2832 v 0 h 5.3848 v 0 h 5.2832 v 0 h 5.3848 v 0 h 5.2832 v 0 h 5.4864"
           inkscape:connector-curvature="0" />
        <path
           id="path5773"
           inkscape:label="part"
           style="fill:none;stroke:#000000;stroke-width:0.0508"
           d="m 109.5375,172.53373 v 4.8768 h 3.0988 v -4.8768 h -3.0988"
           inkscape:connector-curvature="0" />
        <path
           id="path5775"
           inkscape:label="part"
           style="fill:none;stroke:#000000;stroke-width:0.0508"
           d="m 84.9122,172.53373 v 4.8768 h 3.0988 v -4.8768 h -3.0988"
           inkscape:connector-curvature="0" />
        <path
           id="path5777"
           inkscape:label="part"
           style="fill:none;stroke:#000000;stroke-width:0.0508"
           d="m 60.2869,172.53373 v 4.8768 h 3.0988 v -4.8768 h -3.0988"
           inkscape:connector-curvature="0" />
        <path
           id="path5779"
           inkscape:label="part"
           style="fill:none;stroke:#000000;stroke-width:0.0508"
           d="m 109.5375,183.57427 v 4.8768 h 3.0988 v -4.8768 h -3.0988"
           inkscape:connector-curvature="0" />
        <path
           id="path5781"
           inkscape:label="part"
           style="fill:none;stroke:#000000;stroke-width:0.0508"
           d="m 84.9122,183.57427 v 4.8768 h 3.0988 v -4.8768 h -3.0988"
           inkscape:connector-curvature="0" />
        <path
           id="path5783"
           inkscape:label="part"
           style="fill:none;stroke:#000000;stroke-width:0.0508"
           d="m 60.2869,183.57427 v 4.8768 h 3.0988 v -4.8768 h -3.0988"
           inkscape:connector-curvature="0" />
        <path
           id="path5785"
           inkscape:label="part"
           style="fill:none;stroke:#000000;stroke-width:0.0508"
           d="m 137.2616,169.5704 v 2.96333 h -3.0988 v 4.8768 h 3.0988 v 6.16374 h -3.0988 v 4.8768 h 3.0988 v 2.96333"
           inkscape:connector-curvature="0" />
        <path
           id="path5787"
           inkscape:label="part"
           style="fill:none;stroke:#000000;stroke-width:0.0508"
           d="m 137.2616,191.4144 h -5.4864 v 0 h -5.2832 v 0 h -5.3848 v 0 h -5.2832 v 0 h -5.3848 v 0 h -5.2832 v 0 h -5.3848 v 0 H 94.488 v 0 h -5.3848 v 0 H 83.82 v 0 h -5.3848 v 0 H 73.152 v 0 h -5.3848 v 0 H 62.484 v 0 h -5.3848 v 0 H 51.816 v 0 h -5.3848 v 0 H 41.148 v 0 h -5.4864"
           inkscape:connector-curvature="0" />
        <path
           id="path5789"
           inkscape:label="part"
           style="fill:none;stroke:#000000;stroke-width:0.0508"
           d="m 35.6616,191.4144 v -2.96333 h 3.0988 v -4.8768 h -3.0988 v -6.16374 h 3.0988 v -4.8768 h -3.0988 v -2.96333"
           inkscape:connector-curvature="0" />
      </g>
    </g>
    <g
       id="g6065"
       transform="translate(39.854916,-39.845185)">
      <path
         d="m 0,201.422 h 5.4863999 v 0 H 10.7696 v 0 h 5.3848 v 0 h 5.2832 v 0 h 5.3848 v 0 h 5.2832 v 0 h 5.3848 v 0 h 5.2832 v 0 h 5.3848 v 0 h 5.2832 v 0 h 5.3848 v 0 h 5.2832 v 0 h 5.3848 v 0 h 5.2832 v 0 h 5.3848 v 0 h 5.2832 v 0 h 5.3848 v 0 h 5.2832 v 0 H 101.6"
         style="fill:none;stroke:#000000;stroke-width:0.0508"
         inkscape:label="part"
         id="path5791"
         inkscape:connector-curvature="0" />
      <path
         d="m 73.8759,198.3232 v 13.9192 h 3.0988 v -13.9192 h -3.0988"
         style="fill:none;stroke:#000000;stroke-width:0.0508"
         inkscape:label="part"
         id="path5793"
         inkscape:connector-curvature="0" />
      <path
         d="m 49.2506,198.3232 v 13.9192 h 3.0988 v -13.9192 h -3.0988"
         style="fill:none;stroke:#000000;stroke-width:0.0508"
         inkscape:label="part"
         id="path5795"
         inkscape:connector-curvature="0" />
      <path
         d="m 24.6253,198.3232 v 13.9192 h 3.0988 v -13.9192 h -3.0988"
         style="fill:none;stroke:#000000;stroke-width:0.0508"
         inkscape:label="part"
         id="path5797"
         inkscape:connector-curvature="0" />
      <path
         d="m 101.6,201.422 v 2.96333 h -3.0988 v 4.8768 H 101.6 v 6.16374 h -3.0988 v 4.8768 H 101.6 v 2.96333"
         style="fill:none;stroke:#000000;stroke-width:0.0508"
         inkscape:label="part"
         id="path5799"
         inkscape:connector-curvature="0" />
      <path
         d="m 101.6,223.266 h -5.4864 v 0 h -5.2832 v 0 h -5.3848 v 0 h -5.2832 v 0 h -5.3848 v 0 h -5.2832 v 0 h -5.3848 v 0 h -5.2832 v 0 h -5.3848 v 0 h -5.2832 v 0 h -5.3848 v 0 h -5.2832 v 0 h -5.3848 v 0 h -5.2832 v 0 h -5.3848 v 0 h -5.2832 v 0 h -5.3848 v 0 H 5.4863999 v 0 H 0"
         style="fill:none;stroke:#000000;stroke-width:0.0508"
         inkscape:label="part"
         id="path5801"
         inkscape:connector-curvature="0" />
      <path
         d="m 0,223.266 v -2.96333 h 3.0988 v -4.8768 H 0 v -6.16374 h 3.0988 v -4.8768 H 0 V 201.422"
         style="fill:none;stroke:#000000;stroke-width:0.0508"
         inkscape:label="part"
         id="path5803"
         inkscape:connector-curvature="0" />
    </g>
    <g
       id="g6074"
       transform="translate(-65.555084,-65.897144)">
      <path
         d="m 105.41,201.422 h 5.4864 v 0 h 5.2832 v 0 h 5.3848 v 0 h 5.2832 v 0 h 5.3848 v 0 h 5.2832 v 0 h 5.3848 v 0 h 5.2832 v 0 h 5.3848 v 0 h 5.2832 v 0 h 5.3848 v 0 h 5.2832 v 0 h 5.3848 v 0 h 5.2832 v 0 h 5.3848 v 0 h 5.2832 v 0 h 5.3848 v 0 h 5.2832 v 0 h 5.4864"
         style="fill:none;stroke:#000000;stroke-width:0.0508"
         inkscape:label="part"
         id="path5805"
         inkscape:connector-curvature="0" />
      <path
         d="m 179.2859,198.3232 v 13.9192 h 3.0988 v -13.9192 h -3.0988"
         style="fill:none;stroke:#000000;stroke-width:0.0508"
         inkscape:label="part"
         id="path5807"
         inkscape:connector-curvature="0" />
      <path
         d="m 154.6606,198.3232 v 13.9192 h 3.0988 v -13.9192 h -3.0988"
         style="fill:none;stroke:#000000;stroke-width:0.0508"
         inkscape:label="part"
         id="path5809"
         inkscape:connector-curvature="0" />
      <path
         d="m 130.0353,198.3232 v 13.9192 h 3.0988 v -13.9192 h -3.0988"
         style="fill:none;stroke:#000000;stroke-width:0.0508"
         inkscape:label="part"
         id="path5811"
         inkscape:connector-curvature="0" />
      <path
         d="m 207.01,201.422 v 2.96333 h -3.0988 v 4.8768 h 3.0988 v 6.16374 h -3.0988 v 4.8768 h 3.0988 v 2.96333"
         style="fill:none;stroke:#000000;stroke-width:0.0508"
         inkscape:label="part"
         id="path5813"
         inkscape:connector-curvature="0" />
      <path
         d="m 207.01,223.266 h -5.4864 v 0 h -5.2832 v 0 h -5.3848 v 0 h -5.2832 v 0 h -5.3848 v 0 h -5.2832 v 0 h -5.3848 v 0 h -5.2832 v 0 h -5.3848 v 0 h -5.2832 v 0 h -5.3848 v 0 h -5.2832 v 0 h -5.3848 v 0 h -5.2832 v 0 h -5.3848 v 0 h -5.2832 v 0 h -5.3848 v 0 h -5.2832 v 0 H 105.41"
         style="fill:none;stroke:#000000;stroke-width:0.0508"
         inkscape:label="part"
         id="path5815"
         inkscape:connector-curvature="0" />
      <path
         d="m 105.41,223.266 v -2.96333 h 3.0988 v -4.8768 H 105.41 v -6.16374 h 3.0988 v -4.8768 H 105.41 V 201.422"
         style="fill:none;stroke:#000000;stroke-width:0.0508"
         inkscape:label="part"
         id="path5817"
         inkscape:connector-curvature="0" />
    </g>
    <g
       id="g6043"
       transform="rotate(90,112.25701,77.559508)">
      <path
         d="m 144.1704,80.0608 h 2.76013 V 76.962 h -2.76013 v 3.0988"
         style="fill:none;stroke:#000000;stroke-width:0.0508"
         inkscape:label="part"
         id="path5819"
         inkscape:connector-curvature="0" />
      <path
         d="m 144.1704,121.3612 h 2.76013 v -3.0988 h -2.76013 v 3.0988"
         style="fill:none;stroke:#000000;stroke-width:0.0508"
         inkscape:label="part"
         id="path5821"
         inkscape:connector-curvature="0" />
      <path
         d="m 152.21373,80.0608 h 5.75734 V 76.962 h -5.75734 v 3.0988"
         style="fill:none;stroke:#000000;stroke-width:0.0508"
         inkscape:label="part"
         id="path5823"
         inkscape:connector-curvature="0" />
      <path
         d="m 152.21373,121.3612 h 5.75734 v -3.0988 h -5.75734 v 3.0988"
         style="fill:none;stroke:#000000;stroke-width:0.0508"
         inkscape:label="part"
         id="path5825"
         inkscape:connector-curvature="0" />
      <path
         d="m 163.25427,80.0608 h 2.76013 V 76.962 h -2.76013 v 3.0988"
         style="fill:none;stroke:#000000;stroke-width:0.0508"
         inkscape:label="part"
         id="path5827"
         inkscape:connector-curvature="0" />
      <path
         d="m 163.25427,121.3612 h 2.76013 v -3.0988 h -2.76013 v 3.0988"
         style="fill:none;stroke:#000000;stroke-width:0.0508"
         inkscape:label="part"
         id="path5829"
         inkscape:connector-curvature="0" />
      <path
         d="m 144.1704,38.7604 h 2.76013 v -3.0988 h 5.2832 v 3.0988 h 5.75734 v -3.0988 h 5.2832 v 3.0988 h 2.76013"
         style="fill:none;stroke:#000000;stroke-width:0.0508"
         inkscape:label="part"
         id="path5831"
         inkscape:connector-curvature="0" />
      <path
         d="m 166.0144,38.7604 v 2.726266 0 5.2832 0 5.723467 0 5.2832 0 5.723467 0 5.2832 0 5.723466 0 5.2832 0 5.723467 0 5.2832 0 5.723467 0 5.2832 0 5.72347 0 5.2832 0 5.72346 0 5.2832 0 5.72347 0 5.2832 0 5.72347 0 5.2832 0 5.72346 0 5.2832 0 2.72627"
         style="fill:none;stroke:#000000;stroke-width:0.0508"
         inkscape:label="part"
         id="path5833"
         inkscape:connector-curvature="0" />
      <path
         d="m 166.0144,159.5628 h -2.76013 v 3.0988 h -5.2832 v -3.0988 h -5.75734 v 3.0988 h -5.2832 v -3.0988 h -2.76013"
         style="fill:none;stroke:#000000;stroke-width:0.0508"
         inkscape:label="part"
         id="path5835"
         inkscape:connector-curvature="0" />
      <path
         d="m 144.1704,159.5628 v -2.72627 0 -5.2832 0 -5.72346 0 -5.2832 0 -5.72347 0 -5.2832 0 -5.72347 0 -5.2832 0 -5.72346 0 -5.2832 0 -5.72347 0 -5.2832 0 -5.723467 0 -5.2832 0 -5.723467 0 -5.2832 0 -5.723466 0 -5.2832 0 -5.723467 0 -5.2832 0 -5.723467 0 -5.2832 0 -2.726266"
         style="fill:none;stroke:#000000;stroke-width:0.0508"
         inkscape:label="part"
         id="path5837"
         inkscape:connector-curvature="0" />
    </g>
    <g
       id="g6098"
       transform="rotate(90,161.93096,222.39874)">
      <path
         d="m 0,271.4752 h 14.1224 v 3.0988 H 0 v -3.0988"
         style="fill:none;stroke:#000000;stroke-width:0.0508"
         inkscape:label="part"
         id="path5839"
         inkscape:connector-curvature="0" />
      <path
         d="m 0,312.7756 h 14.1224 v 3.0988 H 0 v -3.0988"
         style="fill:none;stroke:#000000;stroke-width:0.0508"
         inkscape:label="part"
         id="path5841"
         inkscape:connector-curvature="0" />
      <path
         d="m 3.0988,233.2736 h 2.760133 v -3.0988 h 5.2832 v 3.0988 h 5.757333 v -3.0988 h 5.2832 v 3.0988 h 2.760133"
         style="fill:none;stroke:#000000;stroke-width:0.0508"
         inkscape:label="part"
         id="path5843"
         inkscape:connector-curvature="0" />
      <path
         d="m 24.942799,233.2736 v 2.72627 0 5.2832 0 5.72346 0 5.2832 0 5.72347 0 5.2832 0 5.72347 0 5.2832 0 5.72346 0 5.2832 0 5.72347 0 5.2832 0 5.72347 0 5.2832 0 5.72346 0 5.2832 0 5.72347 0 5.2832 0 5.72347 0 5.2832 0 5.72346 0 5.2832 0 2.72627"
         style="fill:none;stroke:#000000;stroke-width:0.0508"
         inkscape:label="part"
         id="path5845"
         inkscape:connector-curvature="0" />
      <path
         d="m 24.942799,354.076 h -2.760133 v 3.0988 h -5.2832 v -3.0988 h -5.757333 v 3.0988 h -5.2832 V 354.076 H 3.0988"
         style="fill:none;stroke:#000000;stroke-width:0.0508"
         inkscape:label="part"
         id="path5847"
         inkscape:connector-curvature="0" />
      <path
         d="m 3.0988,354.076 v -2.72627 0 -5.2832 0 -5.72346 0 -5.2832 0 -5.72347 0 -5.2832 0 -5.72347 0 -5.2832 0 -5.72346 0 -5.2832 0 -5.72347 0 -5.2832 0 -5.72347 0 -5.2832 0 -5.72346 0 -5.2832 0 -5.72347 0 -5.2832 0 -5.72347 0 -5.2832 0 -5.72346 0 -5.2832 0 -2.72627"
         style="fill:none;stroke:#000000;stroke-width:0.0508"
         inkscape:label="part"
         id="path5849"
         inkscape:connector-curvature="0" />
    </g>
    <g
       id="g6090"
       transform="rotate(90,91.323119,293.00661)">
      <path
         d="m 31.851599,271.4752 h 14.1224 v 3.0988 h -14.1224 v -3.0988"
         style="fill:none;stroke:#000000;stroke-width:0.0508"
         inkscape:label="part"
         id="path5851"
         inkscape:connector-curvature="0" />
      <path
         d="m 31.851599,312.7756 h 14.1224 v 3.0988 h -14.1224 v -3.0988"
         style="fill:none;stroke:#000000;stroke-width:0.0508"
         inkscape:label="part"
         id="path5853"
         inkscape:connector-curvature="0" />
      <path
         d="m 34.950399,233.2736 h 2.760133 v -3.0988 h 5.283201 v 3.0988 h 5.757333 v -3.0988 h 5.2832 v 3.0988 h 2.760133"
         style="fill:none;stroke:#000000;stroke-width:0.0508"
         inkscape:label="part"
         id="path5855"
         inkscape:connector-curvature="0" />
      <path
         d="m 56.794399,233.2736 v 2.72627 0 5.2832 0 5.72346 0 5.2832 0 5.72347 0 5.2832 0 5.72347 0 5.2832 0 5.72346 0 5.2832 0 5.72347 0 5.2832 0 5.72347 0 5.2832 0 5.72346 0 5.2832 0 5.72347 0 5.2832 0 5.72347 0 5.2832 0 5.72346 0 5.2832 0 2.72627"
         style="fill:none;stroke:#000000;stroke-width:0.0508"
         inkscape:label="part"
         id="path5857"
         inkscape:connector-curvature="0" />
      <path
         d="m 56.794399,354.076 h -2.760133 v 3.0988 h -5.2832 v -3.0988 h -5.757333 v 3.0988 h -5.283201 v -3.0988 h -2.760133"
         style="fill:none;stroke:#000000;stroke-width:0.0508"
         inkscape:label="part"
         id="path5859"
         inkscape:connector-curvature="0" />
      <path
         d="m 34.950399,354.076 v -2.72627 0 -5.2832 0 -5.72346 0 -5.2832 0 -5.72347 0 -5.2832 0 -5.72347 0 -5.2832 0 -5.72346 0 -5.2832 0 -5.72347 0 -5.2832 0 -5.72347 0 -5.2832 0 -5.72346 0 -5.2832 0 -5.72347 0 -5.2832 0 -5.72347 0 -5.2832 0 -5.72346 0 -5.2832 0 -2.72627"
         style="fill:none;stroke:#000000;stroke-width:0.0508"
         inkscape:label="part"
         id="path5861"
         inkscape:connector-curvature="0" />
    </g>
    <g
       id="g6082"
       transform="rotate(90,120.2749,264.05483)">
      <path
         d="m 63.703199,271.4752 h 14.1224 v 3.0988 h -14.1224 v -3.0988"
         style="fill:none;stroke:#000000;stroke-width:0.0508"
         inkscape:label="part"
         id="path5863"
         inkscape:connector-curvature="0" />
      <path
         d="m 63.703199,312.7756 h 14.1224 v 3.0988 h -14.1224 v -3.0988"
         style="fill:none;stroke:#000000;stroke-width:0.0508"
         inkscape:label="part"
         id="path5865"
         inkscape:connector-curvature="0" />
      <path
         d="m 66.801999,233.2736 h 2.760133 v -3.0988 h 5.2832 v 3.0988 h 5.757333 v -3.0988 h 5.2832 v 3.0988 h 2.760133"
         style="fill:none;stroke:#000000;stroke-width:0.0508"
         inkscape:label="part"
         id="path5867"
         inkscape:connector-curvature="0" />
      <path
         d="m 88.645998,233.2736 v 2.72627 0 5.2832 0 5.72346 0 5.2832 0 5.72347 0 5.2832 0 5.72347 0 5.2832 0 5.72346 0 5.2832 0 5.72347 0 5.2832 0 5.72347 0 5.2832 0 5.72346 0 5.2832 0 5.72347 0 5.2832 0 5.72347 0 5.2832 0 5.72346 0 5.2832 0 2.72627"
         style="fill:none;stroke:#000000;stroke-width:0.0508"
         inkscape:label="part"
         id="path5869"
         inkscape:connector-curvature="0" />
      <path
         d="m 88.645998,354.076 h -2.760133 v 3.0988 h -5.2832 v -3.0988 h -5.757333 v 3.0988 h -5.2832 v -3.0988 h -2.760133"
         style="fill:none;stroke:#000000;stroke-width:0.0508"
         inkscape:label="part"
         id="path5871"
         inkscape:connector-curvature="0" />
      <path
         d="m 66.801999,354.076 v -2.72627 0 -5.2832 0 -5.72346 0 -5.2832 0 -5.72347 0 -5.2832 0 -5.72347 0 -5.2832 0 -5.72346 0 -5.2832 0 -5.72347 0 -5.2832 0 -5.72347 0 -5.2832 0 -5.72346 0 -5.2832 0 -5.72347 0 -5.2832 0 -5.72347 0 -5.2832 0 -5.72346 0 -5.2832 0 -2.72627"
         style="fill:none;stroke:#000000;stroke-width:0.0508"
         inkscape:label="part"
         id="path5873"
         inkscape:connector-curvature="0" />
    </g>
    <g
       id="g6007"
       transform="translate(4.1933164,252.67825)">
      <path
         d="m 35.6616,6.9088002 h 5.4864 v 0 h 5.2832 v 0 h 5.3848 v 0 h 5.2832 v 0 h 5.3848 v 0 h 5.2832 v 0 h 5.3848 v 0 h 5.2832 v 0 H 83.82 v 0 h 5.2832 v 0 h 5.3848 v 0 h 5.2832 v 0 h 5.3848 v 0 h 5.2832 v 0 h 5.3848 v 0 h 5.2832 v 0 h 5.3848 v 0 h 5.2832 v 0 h 5.4864"
         style="fill:none;stroke:#000000;stroke-width:0.0508"
         inkscape:label="part"
         id="path5875"
         inkscape:connector-curvature="0" />
      <path
         d="m 109.5375,9.8721332 v 4.8767998 h 3.0988 V 9.8721332 h -3.0988"
         style="fill:none;stroke:#000000;stroke-width:0.0508"
         inkscape:label="part"
         id="path5877"
         inkscape:connector-curvature="0" />
      <path
         d="M 84.9122,9.8721332 V 14.748933 H 88.011 V 9.8721332 h -3.0988"
         style="fill:none;stroke:#000000;stroke-width:0.0508"
         inkscape:label="part"
         id="path5879"
         inkscape:connector-curvature="0" />
      <path
         d="m 60.2869,9.8721332 v 4.8767998 h 3.0988 V 9.8721332 h -3.0988"
         style="fill:none;stroke:#000000;stroke-width:0.0508"
         inkscape:label="part"
         id="path5881"
         inkscape:connector-curvature="0" />
      <path
         d="m 109.5375,20.912666 v 4.8768 h 3.0988 v -4.8768 h -3.0988"
         style="fill:none;stroke:#000000;stroke-width:0.0508"
         inkscape:label="part"
         id="path5883"
         inkscape:connector-curvature="0" />
      <path
         d="m 84.9122,20.912666 v 4.8768 h 3.0988 v -4.8768 h -3.0988"
         style="fill:none;stroke:#000000;stroke-width:0.0508"
         inkscape:label="part"
         id="path5885"
         inkscape:connector-curvature="0" />
      <path
         d="m 60.2869,20.912666 v 4.8768 h 3.0988 v -4.8768 h -3.0988"
         style="fill:none;stroke:#000000;stroke-width:0.0508"
         inkscape:label="part"
         id="path5887"
         inkscape:connector-curvature="0" />
      <path
         d="m 137.2616,6.9088002 v 2.963333 h -3.0988 v 4.8767998 h 3.0988 v 6.163733 h -3.0988 v 4.8768 h 3.0988 v 2.963333"
         style="fill:none;stroke:#000000;stroke-width:0.0508"
         inkscape:label="part"
         id="path5889"
         inkscape:connector-curvature="0" />
      <path
         d="m 137.2616,28.752799 h -5.4864 v 0 h -5.2832 v 0 h -5.3848 v 0 h -5.2832 v 0 h -5.3848 v 0 h -5.2832 v 0 h -5.3848 v 0 H 94.488 v 0 h -5.3848 v 0 H 83.82 v 0 h -5.3848 v 0 H 73.152 v 0 h -5.3848 v 0 H 62.484 v 0 h -5.3848 v 0 H 51.816 v 0 h -5.3848 v 0 H 41.148 v 0 h -5.4864"
         style="fill:none;stroke:#000000;stroke-width:0.0508"
         inkscape:label="part"
         id="path5891"
         inkscape:connector-curvature="0" />
      <path
         d="m 35.6616,28.752799 v -2.963333 h 3.0988 v -4.8768 h -3.0988 v -6.163733 h 3.0988 V 9.8721332 h -3.0988 v -2.963333"
         style="fill:none;stroke:#000000;stroke-width:0.0508"
         inkscape:label="part"
         id="path5893"
         inkscape:connector-curvature="0" />
    </g>
    <g
       id="g6031"
       transform="rotate(90,55.102792,134.71373)">
      <path
         d="m 6.9088002,80.0608 h 2.760133 V 76.962 h -2.760133 v 3.0988"
         style="fill:none;stroke:#000000;stroke-width:0.0508"
         inkscape:label="part"
         id="path5895"
         inkscape:connector-curvature="0" />
      <path
         d="m 6.9088002,121.3612 h 2.760133 v -3.0988 h -2.760133 v 3.0988"
         style="fill:none;stroke:#000000;stroke-width:0.0508"
         inkscape:label="part"
         id="path5897"
         inkscape:connector-curvature="0" />
      <path
         d="m 14.952133,80.0608 h 5.757333 V 76.962 h -5.757333 v 3.0988"
         style="fill:none;stroke:#000000;stroke-width:0.0508"
         inkscape:label="part"
         id="path5899"
         inkscape:connector-curvature="0" />
      <path
         d="m 14.952133,121.3612 h 5.757333 v -3.0988 h -5.757333 v 3.0988"
         style="fill:none;stroke:#000000;stroke-width:0.0508"
         inkscape:label="part"
         id="path5901"
         inkscape:connector-curvature="0" />
      <path
         d="m 25.992666,80.0608 h 2.760133 V 76.962 h -2.760133 v 3.0988"
         style="fill:none;stroke:#000000;stroke-width:0.0508"
         inkscape:label="part"
         id="path5903"
         inkscape:connector-curvature="0" />
      <path
         d="m 25.992666,121.3612 h 2.760133 v -3.0988 h -2.760133 v 3.0988"
         style="fill:none;stroke:#000000;stroke-width:0.0508"
         inkscape:label="part"
         id="path5905"
         inkscape:connector-curvature="0" />
      <path
         d="m 6.9088002,38.7604 h 2.760133 v -3.0988 h 5.2831998 v 3.0988 h 5.757333 v -3.0988 h 5.2832 v 3.0988 h 2.760133"
         style="fill:none;stroke:#000000;stroke-width:0.0508"
         inkscape:label="part"
         id="path5907"
         inkscape:connector-curvature="0" />
      <path
         d="m 28.752799,38.7604 v 2.726266 0 5.2832 0 5.723467 0 5.2832 0 5.723467 0 5.2832 0 5.723466 0 5.2832 0 5.723467 0 5.2832 0 5.723467 0 5.2832 0 5.72347 0 5.2832 0 5.72346 0 5.2832 0 5.72347 0 5.2832 0 5.72347 0 5.2832 0 5.72346 0 5.2832 0 2.72627"
         style="fill:none;stroke:#000000;stroke-width:0.0508"
         inkscape:label="part"
         id="path5909"
         inkscape:connector-curvature="0" />
      <path
         d="m 28.752799,159.5628 h -2.760133 v 3.0988 h -5.2832 v -3.0988 h -5.757333 v 3.0988 H 9.6689332 v -3.0988 h -2.760133"
         style="fill:none;stroke:#000000;stroke-width:0.0508"
         inkscape:label="part"
         id="path5911"
         inkscape:connector-curvature="0" />
      <path
         d="m 6.9088002,159.5628 v -2.72627 0 -5.2832 0 -5.72346 0 -5.2832 0 -5.72347 0 -5.2832 0 -5.72347 0 -5.2832 0 -5.72346 0 -5.2832 0 -5.72347 0 -5.2832 0 -5.723467 0 -5.2832 0 -5.723467 0 -5.2832 0 -5.723466 0 -5.2832 0 -5.723467 0 -5.2832 0 -5.723467 0 -5.2832 0 -2.726266"
         style="fill:none;stroke:#000000;stroke-width:0.0508"
         inkscape:label="part"
         id="path5913"
         inkscape:connector-curvature="0" />
    </g>
    <g
       aria-label="-0.5&quot;"
       transform="scale(0.87567921,1.1419707)"
       style="font-style:normal;font-variant:normal;font-weight:normal;font-stretch:normal;font-size:15.1796751px;line-height:1.25;font-family:Superclarendon;-inkscape-font-specification:'Superclarendon, Normal';font-variant-ligatures:normal;font-variant-caps:normal;font-variant-numeric:normal;font-feature-settings:normal;text-align:start;letter-spacing:0px;word-spacing:0px;writing-mode:lr-tb;text-anchor:start;fill:none;fill-opacity:1;stroke:#00fb00;stroke-width:0.37949234;stroke-opacity:1"
       id="text6106">
      <path
         d="m 90.610803,87.278292 h -4.265489 v -1.184015 h 4.265489 z"
         style="font-style:normal;font-variant:normal;font-weight:normal;font-stretch:normal;font-size:15.1796751px;font-family:Superclarendon;-inkscape-font-specification:'Superclarendon, Normal';font-variant-ligatures:normal;font-variant-caps:normal;font-variant-numeric:normal;font-feature-settings:normal;text-align:start;writing-mode:lr-tb;text-anchor:start;stroke-width:0.37949234;stroke:#00fb00;stroke-opacity:1;fill:none"
         id="path6134" />
      <path
         d="m 96.378131,80.675133 q 1.138475,0 1.988537,0.273235 0.850062,0.273234 1.41171,0.91078 0.561652,0.622367 0.834882,1.669764 0.28841,1.032218 0.28841,2.550186 0,1.487608 -0.28841,2.489466 -0.27323,1.001859 -0.834882,1.609046 -0.561648,0.592007 -1.41171,0.850062 -0.850062,0.242875 -1.988537,0.242875 -1.138476,0 -1.988538,-0.242875 -0.850062,-0.258055 -1.41171,-0.850062 -0.561648,-0.607187 -0.834882,-1.609046 -0.273234,-1.001858 -0.273234,-2.489466 0,-1.517968 0.273234,-2.550186 0.288414,-1.047397 0.834882,-1.669764 0.561648,-0.637546 1.41171,-0.91078 0.850062,-0.273235 1.988538,-0.273235 z m 0,1.047398 q -0.667906,0 -1.108117,0.303593 -0.44021,0.303594 -0.698265,0.880422 -0.242875,0.561648 -0.349132,1.36617 -0.09108,0.789343 -0.09108,1.791202 0,1.184015 0.09108,1.973358 0.106257,0.789343 0.349132,1.275093 0.258055,0.485749 0.683086,0.698265 0.44021,0.197335 1.123296,0.197335 0.683085,0 1.108116,-0.197335 0.44021,-0.212516 0.698265,-0.698265 0.258054,-0.48575 0.349132,-1.275093 0.106258,-0.789343 0.106258,-1.973358 0,-1.001859 -0.106258,-1.791202 -0.09108,-0.804522 -0.349132,-1.36617 -0.258055,-0.576828 -0.698265,-0.880422 -0.425031,-0.303593 -1.108116,-0.303593 z"
         style="font-style:normal;font-variant:normal;font-weight:normal;font-stretch:normal;font-size:15.1796751px;font-family:Superclarendon;-inkscape-font-specification:'Superclarendon, Normal';font-variant-ligatures:normal;font-variant-caps:normal;font-variant-numeric:normal;font-feature-settings:normal;text-align:start;writing-mode:lr-tb;text-anchor:start;stroke-width:0.37949234;stroke:#00fb00;stroke-opacity:1;fill:none"
         id="path6136" />
      <path
         d="m 104.61073,89.949915 q 0,0.500929 -0.34913,0.850062 -0.34913,0.349132 -0.85006,0.349132 -0.50093,0 -0.85006,-0.349132 -0.34914,-0.349133 -0.34914,-0.850062 0,-0.48575 0.34914,-0.834882 0.34913,-0.364312 0.85006,-0.364312 0.50093,0 0.85006,0.364312 0.34913,0.349132 0.34913,0.834882 z"
         style="font-style:normal;font-variant:normal;font-weight:normal;font-stretch:normal;font-size:15.1796751px;font-family:Superclarendon;-inkscape-font-specification:'Superclarendon, Normal';font-variant-ligatures:normal;font-variant-caps:normal;font-variant-numeric:normal;font-feature-settings:normal;text-align:start;writing-mode:lr-tb;text-anchor:start;stroke-width:0.37949234;stroke:#00fb00;stroke-opacity:1;fill:none"
         id="path6138" />
      <path
         d="m 113.90235,81.069805 q -0.57682,0.758984 -1.4876,1.138476 -0.91078,0.364312 -1.89746,0.364312 -0.21252,0 -0.50093,-0.01518 -0.28842,-0.01518 -0.62237,-0.06072 -0.31877,-0.04554 -0.65272,-0.121437 -0.33396,-0.0759 -0.62237,-0.197336 l -0.2277,2.292131 q 0.63755,-0.333953 1.2751,-0.45539 0.65272,-0.136617 1.38135,-0.136617 1.13847,0 1.89746,0.318773 0.75898,0.318773 1.21437,0.819702 0.45539,0.50093 0.63755,1.138476 0.18215,0.622367 0.18215,1.259913 0,1.032218 -0.36431,1.760842 -0.34913,0.728625 -0.98668,1.199195 -0.62237,0.45539 -1.47243,0.667905 -0.85006,0.227696 -1.82156,0.227696 -0.8197,0 -1.51797,-0.227696 -0.68308,-0.212515 -1.18401,-0.576827 -0.50093,-0.364312 -0.78934,-0.834882 -0.28842,-0.48575 -0.28842,-1.001859 0,-0.516109 0.27324,-0.834882 0.27323,-0.333953 0.80452,-0.333953 0.51611,0 0.80452,0.318773 0.3036,0.318774 0.3036,0.774164 0,0.349132 -0.2277,0.622366 -0.21251,0.258055 -0.50093,0.288414 0.16698,0.379492 0.74381,0.622367 0.57682,0.227695 1.39653,0.227695 2.48946,0 2.48946,-2.884138 0,-0.516109 -0.13661,-0.971499 -0.13662,-0.47057 -0.40986,-0.804523 -0.27323,-0.349133 -0.69826,-0.546468 -0.42503,-0.197336 -0.98668,-0.197336 -1.41171,0 -2.56537,0.652726 l -0.69826,-0.50093 0.40985,-4.386926 q 0.39467,0.06072 0.88042,0.106258 0.48575,0.04554 1.00186,0.0759 0.51611,0.03036 1.01704,0.04554 0.50093,0.01518 0.92596,0.01518 0.72862,0 1.53315,-0.09108 0.8197,-0.09108 1.47242,-0.258054 z"
         style="font-style:normal;font-variant:normal;font-weight:normal;font-stretch:normal;font-size:15.1796751px;font-family:Superclarendon;-inkscape-font-specification:'Superclarendon, Normal';font-variant-ligatures:normal;font-variant-caps:normal;font-variant-numeric:normal;font-feature-settings:normal;text-align:start;writing-mode:lr-tb;text-anchor:start;stroke-width:0.37949234;stroke:#00fb00;stroke-opacity:1;fill:none"
         id="path6140" />
      <path
         d="m 119.35423,84.485232 q -0.0759,-1.032218 -0.18216,-1.715303 -0.0911,-0.683086 -0.18215,-1.138476 -0.0911,-0.47057 -0.1518,-0.789343 -0.0607,-0.318773 -0.0607,-0.622367 0,-0.273234 0.0911,-0.44021 0.0911,-0.166977 0.2277,-0.242875 0.15179,-0.09108 0.31877,-0.121438 0.18216,-0.03036 0.34913,-0.03036 0.1518,0 0.31877,0.03036 0.16698,0.03036 0.3036,0.121438 0.13662,0.09108 0.22769,0.258054 0.0911,0.151797 0.0911,0.409851 0,0.303594 -0.0607,0.622367 -0.0455,0.318773 -0.13661,0.789343 -0.0759,0.47057 -0.18216,1.168835 -0.10626,0.683086 -0.21252,1.700124 z m -2.9145,0 q -0.0759,-1.032218 -0.18215,-1.715303 -0.0911,-0.683086 -0.18216,-1.138476 -0.0759,-0.47057 -0.13662,-0.789343 -0.0607,-0.318773 -0.0607,-0.622367 0,-0.273234 0.0759,-0.44021 0.0911,-0.166977 0.2277,-0.242875 0.13662,-0.09108 0.30359,-0.121438 0.18216,-0.03036 0.36431,-0.03036 0.1518,0 0.31878,0.03036 0.16697,0.03036 0.30359,0.121438 0.13662,0.09108 0.2277,0.258054 0.0911,0.151797 0.0911,0.409851 0,0.303594 -0.0607,0.622367 -0.0455,0.318773 -0.13662,0.789343 -0.0759,0.47057 -0.18216,1.168835 -0.10626,0.683086 -0.21251,1.700124 z"
         style="font-style:normal;font-variant:normal;font-weight:normal;font-stretch:normal;font-size:15.1796751px;font-family:Superclarendon;-inkscape-font-specification:'Superclarendon, Normal';font-variant-ligatures:normal;font-variant-caps:normal;font-variant-numeric:normal;font-feature-settings:normal;text-align:start;writing-mode:lr-tb;text-anchor:start;stroke-width:0.37949234;stroke:#00fb00;stroke-opacity:1;fill:none"
         id="path6142" />
    </g>
    <g
       aria-label="-0.5&quot;"
       transform="scale(0.87567921,1.1419707)"
       style="font-style:normal;font-variant:normal;font-weight:normal;font-stretch:normal;font-size:15.1796751px;line-height:1.25;font-family:Superclarendon;-inkscape-font-specification:'Superclarendon, Normal';font-variant-ligatures:normal;font-variant-caps:normal;font-variant-numeric:normal;font-feature-settings:normal;text-align:start;letter-spacing:0px;word-spacing:0px;writing-mode:lr-tb;text-anchor:start;fill:none;fill-opacity:1;stroke:#00fb00;stroke-width:0.37949234;stroke-opacity:1"
       id="text6106-9">
      <path
         d="m 90.610795,107.37789 h -4.265488 v -1.18401 h 4.265488 z"
         style="font-style:normal;font-variant:normal;font-weight:normal;font-stretch:normal;font-size:15.1796751px;font-family:Superclarendon;-inkscape-font-specification:'Superclarendon, Normal';font-variant-ligatures:normal;font-variant-caps:normal;font-variant-numeric:normal;font-feature-settings:normal;text-align:start;writing-mode:lr-tb;text-anchor:start;stroke-width:0.37949234;stroke:#00fb00;stroke-opacity:1;fill:none"
         id="path6145" />
      <path
         d="m 96.378123,100.77474 q 1.138476,0 1.988537,0.27323 0.850062,0.27323 1.41171,0.91078 0.56165,0.62237 0.83488,1.66976 0.28842,1.03222 0.28842,2.55019 0,1.48761 -0.28842,2.48947 -0.27323,1.00185 -0.83488,1.60904 -0.561648,0.59201 -1.41171,0.85006 -0.850061,0.24288 -1.988537,0.24288 -1.138476,0 -1.988538,-0.24288 -0.850061,-0.25805 -1.411709,-0.85006 -0.561648,-0.60719 -0.834882,-1.60904 -0.273235,-1.00186 -0.273235,-2.48947 0,-1.51797 0.273235,-2.55019 0.288413,-1.04739 0.834882,-1.66976 0.561648,-0.63755 1.411709,-0.91078 0.850062,-0.27323 1.988538,-0.27323 z m 0,1.04739 q -0.667906,0 -1.108116,0.3036 -0.440211,0.30359 -0.698265,0.88042 -0.242875,0.56165 -0.349133,1.36617 -0.09108,0.78934 -0.09108,1.7912 0,1.18401 0.09108,1.97336 0.106258,0.78934 0.349133,1.27509 0.258054,0.48575 0.683085,0.69827 0.440211,0.19733 1.123296,0.19733 0.683085,0 1.108116,-0.19733 0.440211,-0.21252 0.698265,-0.69827 0.258055,-0.48575 0.349133,-1.27509 0.106258,-0.78935 0.106258,-1.97336 0,-1.00186 -0.106258,-1.7912 -0.09108,-0.80452 -0.349133,-1.36617 -0.258054,-0.57683 -0.698265,-0.88042 -0.425031,-0.3036 -1.108116,-0.3036 z"
         style="font-style:normal;font-variant:normal;font-weight:normal;font-stretch:normal;font-size:15.1796751px;font-family:Superclarendon;-inkscape-font-specification:'Superclarendon, Normal';font-variant-ligatures:normal;font-variant-caps:normal;font-variant-numeric:normal;font-feature-settings:normal;text-align:start;writing-mode:lr-tb;text-anchor:start;stroke-width:0.37949234;stroke:#00fb00;stroke-opacity:1;fill:none"
         id="path6147" />
      <path
         d="m 104.61073,110.04952 q 0,0.50093 -0.34914,0.85006 -0.34913,0.34913 -0.85006,0.34913 -0.50093,0 -0.85006,-0.34913 -0.34913,-0.34913 -0.34913,-0.85006 0,-0.48575 0.34913,-0.83489 0.34913,-0.36431 0.85006,-0.36431 0.50093,0 0.85006,0.36431 0.34914,0.34914 0.34914,0.83489 z"
         style="font-style:normal;font-variant:normal;font-weight:normal;font-stretch:normal;font-size:15.1796751px;font-family:Superclarendon;-inkscape-font-specification:'Superclarendon, Normal';font-variant-ligatures:normal;font-variant-caps:normal;font-variant-numeric:normal;font-feature-settings:normal;text-align:start;writing-mode:lr-tb;text-anchor:start;stroke-width:0.37949234;stroke:#00fb00;stroke-opacity:1;fill:none"
         id="path6149" />
      <path
         d="m 113.90235,101.16941 q -0.57683,0.75898 -1.48761,1.13847 -0.91078,0.36431 -1.89746,0.36431 -0.21252,0 -0.50093,-0.0152 -0.28841,-0.0152 -0.62237,-0.0607 -0.31877,-0.0455 -0.65272,-0.12144 -0.33396,-0.0759 -0.62237,-0.19734 l -0.22769,2.29213 q 0.63754,-0.33395 1.27509,-0.45539 0.65272,-0.13661 1.38135,-0.13661 1.13847,0 1.89746,0.31877 0.75898,0.31877 1.21437,0.8197 0.45539,0.50093 0.63755,1.13848 0.18215,0.62236 0.18215,1.25991 0,1.03222 -0.36431,1.76084 -0.34913,0.72863 -0.98668,1.1992 -0.62236,0.45539 -1.47242,0.6679 -0.85007,0.2277 -1.82157,0.2277 -0.8197,0 -1.51796,-0.2277 -0.68309,-0.21251 -1.18402,-0.57682 -0.50093,-0.36432 -0.78934,-0.83489 -0.28842,-0.48575 -0.28842,-1.00186 0,-0.5161 0.27324,-0.83488 0.27323,-0.33395 0.80452,-0.33395 0.51611,0 0.80452,0.31877 0.3036,0.31878 0.3036,0.77417 0,0.34913 -0.2277,0.62236 -0.21251,0.25806 -0.50093,0.28842 0.16698,0.37949 0.74381,0.62236 0.57683,0.2277 1.39653,0.2277 2.48946,0 2.48946,-2.88414 0,-0.51611 -0.13661,-0.9715 -0.13662,-0.47057 -0.40985,-0.80452 -0.27324,-0.34913 -0.69827,-0.54647 -0.42503,-0.19734 -0.98668,-0.19734 -1.41171,0 -2.56536,0.65273 l -0.69827,-0.50093 0.40985,-4.38692 q 0.39468,0.0607 0.88042,0.10625 0.48575,0.0455 1.00186,0.0759 0.51611,0.0304 1.01704,0.0455 0.50093,0.0152 0.92596,0.0152 0.72863,0 1.53315,-0.0911 0.8197,-0.0911 1.47243,-0.25805 z"
         style="font-style:normal;font-variant:normal;font-weight:normal;font-stretch:normal;font-size:15.1796751px;font-family:Superclarendon;-inkscape-font-specification:'Superclarendon, Normal';font-variant-ligatures:normal;font-variant-caps:normal;font-variant-numeric:normal;font-feature-settings:normal;text-align:start;writing-mode:lr-tb;text-anchor:start;stroke-width:0.37949234;stroke:#00fb00;stroke-opacity:1;fill:none"
         id="path6151" />
      <path
         d="m 119.35422,104.58483 q -0.0759,-1.03221 -0.18215,-1.7153 -0.0911,-0.68309 -0.18216,-1.13848 -0.0911,-0.47057 -0.1518,-0.78934 -0.0607,-0.31877 -0.0607,-0.62237 0,-0.27323 0.0911,-0.440206 0.0911,-0.166976 0.2277,-0.242874 0.15179,-0.09108 0.31877,-0.121438 0.18216,-0.03036 0.34913,-0.03036 0.1518,0 0.31878,0.03036 0.16697,0.03036 0.30359,0.121438 0.13662,0.09108 0.2277,0.258054 0.0911,0.151796 0.0911,0.409856 0,0.30359 -0.0607,0.62236 -0.0455,0.31878 -0.13662,0.78934 -0.0759,0.47057 -0.18216,1.16884 -0.10626,0.68309 -0.21251,1.70012 z m -2.91449,0 q -0.0759,-1.03221 -0.18216,-1.7153 -0.0911,-0.68309 -0.18216,-1.13848 -0.0759,-0.47057 -0.13661,-0.78934 -0.0607,-0.31877 -0.0607,-0.62237 0,-0.27323 0.0759,-0.440206 0.0911,-0.166976 0.22769,-0.242874 0.13662,-0.09108 0.30359,-0.121438 0.18216,-0.03036 0.36432,-0.03036 0.15179,0 0.31877,0.03036 0.16698,0.03036 0.30359,0.121438 0.13662,0.09108 0.2277,0.258054 0.0911,0.151796 0.0911,0.409856 0,0.30359 -0.0607,0.62236 -0.0455,0.31878 -0.13662,0.78934 -0.0759,0.47057 -0.18216,1.16884 -0.10625,0.68309 -0.21251,1.70012 z"
         style="font-style:normal;font-variant:normal;font-weight:normal;font-stretch:normal;font-size:15.1796751px;font-family:Superclarendon;-inkscape-font-specification:'Superclarendon, Normal';font-variant-ligatures:normal;font-variant-caps:normal;font-variant-numeric:normal;font-feature-settings:normal;text-align:start;writing-mode:lr-tb;text-anchor:start;stroke-width:0.37949234;stroke:#00fb00;stroke-opacity:1;fill:none"
         id="path6153" />
    </g>
  </g>
  <g
     inkscape:label="newlayer"
     inkscape:groupmode="layer"
     id="g4834" />
  <g
     id="g5917"
     inkscape:groupmode="layer"
     inkscape:label="newlayer" />
</svg>
