<?xml version="1.0" encoding="UTF-8" standalone="no"?>
<!-- Created with Inkscape (http://www.inkscape.org/) -->

<svg
   xmlns:dc="http://purl.org/dc/elements/1.1/"
   xmlns:cc="http://creativecommons.org/ns#"
   xmlns:rdf="http://www.w3.org/1999/02/22-rdf-syntax-ns#"
   xmlns:svg="http://www.w3.org/2000/svg"
   xmlns="http://www.w3.org/2000/svg"
   xmlns:sodipodi="http://sodipodi.sourceforge.net/DTD/sodipodi-0.dtd"
   xmlns:inkscape="http://www.inkscape.org/namespaces/inkscape"
   width="20in"
   height="12in"
   viewBox="0 0 508.00001 304.80001"
   version="1.1"
   id="svg8"
   inkscape:version="0.92.2 5c3e80d, 2017-08-06"
   sodipodi:docname="Bed Riser (Comb Height).svg">
  <sodipodi:namedview
     id="base"
     pagecolor="#ffffff"
     bordercolor="#666666"
     borderopacity="1.0"
     inkscape:pageopacity="0.0"
     inkscape:pageshadow="2"
     inkscape:zoom="0.75847222"
     inkscape:cx="737.87089"
     inkscape:cy="578.09186"
     inkscape:document-units="mm"
     inkscape:current-layer="layer1"
     showgrid="false"
     units="in"
     inkscape:window-width="1920"
     inkscape:window-height="1080"
     inkscape:window-x="231"
     inkscape:window-y="54"
     inkscape:window-maximized="0"
     inkscape:object-nodes="false"
     inkscape:snap-nodes="false"
     inkscape:snap-others="false" />
  <defs
     id="defs2" />
  <metadata
     id="metadata5">
    <rdf:RDF>
      <cc:Work
         rdf:about="">
        <dc:format>image/svg+xml</dc:format>
        <dc:type
           rdf:resource="http://purl.org/dc/dcmitype/StillImage" />
        <dc:title></dc:title>
      </cc:Work>
    </rdf:RDF>
  </metadata>
  <g
     transform="translate(0,7.8000168)"
     id="layer1"
     inkscape:groupmode="layer"
     inkscape:label="Layer 1">
    <g
       id="g2468"
       transform="translate(-38.372093,-0.69767442)">
      <path
         d="m 43.09,133.84 h 5.940455 v 0 h 6.21 v 0 h 5.835454 v 0 h 6.21 v 0 h 5.835455 v 0 h 6.21 v 0 h 5.835454 v 0 h 6.21 v 0 h 5.835455 v 0 h 6.209997 v 0 h 5.83546 v 0 h 6.21 v 0 h 5.83545 v 0 h 6.21 v 0 h 5.83546 v 0 h 6.21 v 0 h 5.83545 v 0 h 6.21 v 0 h 5.83546 v 0 h 6.21 v 0 H 169.59"
         style="fill:none;stroke:#000000;stroke-width:1"
         inkscape:label="part"
         id="path2183"
         inkscape:connector-curvature="0" />
      <path
         d="m 125.25667,140.39167 v 5.79 h 3.25 v -5.79 h -3.25"
         style="fill:none;stroke:#000000;stroke-width:1"
         inkscape:label="part"
         id="path2185"
         inkscape:connector-curvature="0" />
      <path
         d="m 84.173333,140.39167 v 5.79 h 3.25 v -5.79 h -3.25"
         style="fill:none;stroke:#000000;stroke-width:1"
         inkscape:label="part"
         id="path2187"
         inkscape:connector-curvature="0" />
      <path
         d="m 125.25667,156.08833 v 5.79 h 3.25 v -5.79 h -3.25"
         style="fill:none;stroke:#000000;stroke-width:1"
         inkscape:label="part"
         id="path2189"
         inkscape:connector-curvature="0" />
      <path
         d="m 84.173333,156.08833 v 5.79 h 3.25 v -5.79 h -3.25"
         style="fill:none;stroke:#000000;stroke-width:1"
         inkscape:label="part"
         id="path2191"
         inkscape:connector-curvature="0" />
      <path
         d="m 169.59,133.84 v 6.55167 h -3.25 v 5.79 h 3.25 v 9.90666 h -3.25 v 5.79 h 3.25 V 168.43"
         style="fill:none;stroke:#000000;stroke-width:1"
         inkscape:label="part"
         id="path2193"
         inkscape:connector-curvature="0" />
      <path
         d="m 169.59,168.43 h -5.94045 v 0 h -6.21 v 0 h -5.83546 v 0 h -6.21 v 0 h -5.83545 v 0 h -6.21 v 0 h -5.83546 v 0 h -6.21 v 0 h -5.83545 v 0 h -6.21 v 0 h -5.83546 v 0 h -6.209997 v 0 h -5.835455 v 0 h -6.21 v 0 h -5.835454 v 0 h -6.21 v 0 h -5.835455 v 0 h -6.21 v 0 h -5.835454 v 0 h -6.21 v 0 H 43.09"
         style="fill:none;stroke:#000000;stroke-width:1"
         inkscape:label="part"
         id="path2195"
         inkscape:connector-curvature="0" />
      <path
         d="m 43.09,168.43 v -6.55167 h 3.25 v -5.79 h -3.25 v -9.90666 h 3.25 v -5.79 H 43.09 V 133.84"
         style="fill:none;stroke:#000000;stroke-width:1"
         inkscape:label="part"
         id="path2197"
         inkscape:connector-curvature="0" />
    </g>
    <g
       id="g2494"
       transform="translate(132.55814,-42.55814)">
      <path
         d="m 0,175.93 h 5.9404545 v 0 h 6.2100005 v 0 h 5.835454 v 0 h 6.21 v 0 h 5.835455 v 0 h 6.21 v 0 h 5.835454 v 0 h 6.21 v 0 h 5.835455 v 0 h 6.21 v 0 h 5.835454 v 0 h 6.21 v 0 h 5.835455 v 0 h 6.21 v 0 h 5.835454 v 0 h 6.21 v 0 h 5.835454 v 0 h 6.21 v 0 h 5.83546 v 0 h 6.21 v 0 H 126.5"
         style="fill:none;stroke:#000000;stroke-width:1"
         inkscape:label="part"
         id="path2199"
         inkscape:connector-curvature="0" />
      <path
         d="m 82.166667,172.68 v 20.44 h 3.25 v -20.44 h -3.25"
         style="fill:none;stroke:#000000;stroke-width:1"
         inkscape:label="part"
         id="path2201"
         inkscape:connector-curvature="0" />
      <path
         d="m 41.083333,172.68 v 20.44 h 3.25 v -20.44 h -3.25"
         style="fill:none;stroke:#000000;stroke-width:1"
         inkscape:label="part"
         id="path2203"
         inkscape:connector-curvature="0" />
      <path
         d="m 126.5,175.93 v 6.55167 h -3.25 v 5.79 h 3.25 v 9.90666 h -3.25 v 5.79 h 3.25 V 210.52"
         style="fill:none;stroke:#000000;stroke-width:1"
         inkscape:label="part"
         id="path2205"
         inkscape:connector-curvature="0" />
      <path
         d="m 126.5,210.52 h -5.94045 v 0 h -6.21 v 0 h -5.83546 v 0 h -6.21 v 0 h -5.835454 v 0 h -6.21 v 0 h -5.835454 v 0 h -6.21 v 0 h -5.835455 v 0 h -6.21 v 0 h -5.835454 v 0 h -6.21 v 0 h -5.835455 v 0 h -6.21 v 0 h -5.835454 v 0 h -6.21 v 0 h -5.835455 v 0 h -6.21 v 0 h -5.835454 v 0 H 5.9404545 v 0 H 0"
         style="fill:none;stroke:#000000;stroke-width:1"
         inkscape:label="part"
         id="path2207"
         inkscape:connector-curvature="0" />
      <path
         d="m 0,210.52 v -6.55167 h 3.25 v -5.79 H 0 v -9.90666 h 3.25 v -5.79 H 0 V 175.93"
         style="fill:none;stroke:#000000;stroke-width:1"
         inkscape:label="part"
         id="path2209"
         inkscape:connector-curvature="0" />
    </g>
    <g
       id="g2486"
       transform="rotate(90,269.23837,142.41395)">
      <path
         d="m 127.5,175.93 h 5.94045 v 0 h 6.21 v 0 h 5.83546 v 0 h 6.21 v 0 h 5.83545 v 0 h 6.21 v 0 h 5.83546 v 0 h 6.21 v 0 h 5.83545 v 0 h 6.21 v 0 h 5.83546 v 0 h 6.21 v 0 h 5.83545 v 0 h 6.21 v 0 h 5.83546 v 0 h 6.21 v 0 h 5.83545 v 0 h 6.21 v 0 h 5.83546 v 0 h 6.21 v 0 H 254"
         style="fill:none;stroke:#000000;stroke-width:1"
         inkscape:label="part"
         id="path2211"
         inkscape:connector-curvature="0" />
      <path
         d="m 209.66667,172.68 v 20.44 h 3.25 v -20.44 h -3.25"
         style="fill:none;stroke:#000000;stroke-width:1"
         inkscape:label="part"
         id="path2213"
         inkscape:connector-curvature="0" />
      <path
         d="m 168.58333,172.68 v 20.44 h 3.25 v -20.44 h -3.25"
         style="fill:none;stroke:#000000;stroke-width:1"
         inkscape:label="part"
         id="path2215"
         inkscape:connector-curvature="0" />
      <path
         d="m 254,175.93 v 6.55167 h -3.25 v 5.79 H 254 v 9.90666 h -3.25 v 5.79 H 254 V 210.52"
         style="fill:none;stroke:#000000;stroke-width:1"
         inkscape:label="part"
         id="path2217"
         inkscape:connector-curvature="0" />
      <path
         d="m 254,210.52 h -5.94045 v 0 h -6.21 v 0 h -5.83546 v 0 h -6.21 v 0 h -5.83545 v 0 h -6.21 v 0 h -5.83546 v 0 h -6.21 v 0 h -5.83545 v 0 h -6.21 v 0 h -5.83546 v 0 h -6.21 v 0 h -5.83545 v 0 h -6.21 v 0 h -5.83546 v 0 h -6.21 v 0 h -5.83545 v 0 h -6.21 v 0 h -5.83546 v 0 h -6.21 v 0 H 127.5"
         style="fill:none;stroke:#000000;stroke-width:1"
         inkscape:label="part"
         id="path2219"
         inkscape:connector-curvature="0" />
      <path
         d="m 127.5,210.52 v -6.55167 h 3.25 v -5.79 h -3.25 v -9.90666 h 3.25 v -5.79 H 127.5 V 175.93"
         style="fill:none;stroke:#000000;stroke-width:1"
         inkscape:label="part"
         id="path2221"
         inkscape:connector-curvature="0" />
    </g>
    <g
       id="g2458"
       transform="rotate(90,313.36628,59.041863)">
      <path
         d="m 255,175.93 h 5.94045 v 0 h 6.21 v 0 h 5.83546 v 0 h 6.21 v 0 h 5.83545 v 0 h 6.21 v 0 h 5.83546 v 0 h 6.21 v 0 h 5.83545 v 0 h 6.21 v 0 h 5.83546 v 0 h 6.21 v 0 h 5.83545 v 0 h 6.21 v 0 h 5.83546 v 0 h 6.21 v 0 h 5.83545 v 0 h 6.21 v 0 h 5.83546 v 0 h 6.21 v 0 H 381.5"
         style="fill:none;stroke:#000000;stroke-width:1"
         inkscape:label="part"
         id="path2223"
         inkscape:connector-curvature="0" />
      <path
         d="m 337.16667,172.68 v 20.44 h 3.25 v -20.44 h -3.25"
         style="fill:none;stroke:#000000;stroke-width:1"
         inkscape:label="part"
         id="path2225"
         inkscape:connector-curvature="0" />
      <path
         d="m 296.08333,172.68 v 20.44 h 3.25 v -20.44 h -3.25"
         style="fill:none;stroke:#000000;stroke-width:1"
         inkscape:label="part"
         id="path2227"
         inkscape:connector-curvature="0" />
      <path
         d="m 381.5,175.93 v 6.55167 h -3.25 v 5.79 h 3.25 v 9.90666 h -3.25 v 5.79 h 3.25 V 210.52"
         style="fill:none;stroke:#000000;stroke-width:1"
         inkscape:label="part"
         id="path2229"
         inkscape:connector-curvature="0" />
      <path
         d="m 381.5,210.52 h -5.94045 v 0 h -6.21 v 0 h -5.83546 v 0 h -6.21 v 0 h -5.83545 v 0 h -6.21 v 0 h -5.83546 v 0 h -6.21 v 0 h -5.83545 v 0 h -6.21 v 0 h -5.83546 v 0 h -6.21 v 0 h -5.83545 v 0 h -6.21 v 0 h -5.83546 v 0 h -6.21 v 0 h -5.83545 v 0 h -6.21 v 0 h -5.83546 v 0 h -6.21 v 0 H 255"
         style="fill:none;stroke:#000000;stroke-width:1"
         inkscape:label="part"
         id="path2231"
         inkscape:connector-curvature="0" />
      <path
         d="m 255,210.52 v -6.55167 h 3.25 v -5.79 H 255 v -9.90666 h 3.25 v -5.79 H 255 V 175.93"
         style="fill:none;stroke:#000000;stroke-width:1"
         inkscape:label="part"
         id="path2233"
         inkscape:connector-curvature="0" />
    </g>
    <g
       id="g2450"
       transform="translate(-49.186047)">
      <path
         d="m 173.84,67.1525 h 6.34167 v -3.25 H 173.84 v 3.25"
         style="fill:none;stroke:#000000;stroke-width:1"
         inkscape:label="part"
         id="path2235"
         inkscape:connector-curvature="0" />
      <path
         d="m 173.84,87.965 h 6.34167 v -3.25 H 173.84 v 3.25"
         style="fill:none;stroke:#000000;stroke-width:1"
         inkscape:label="part"
         id="path2237"
         inkscape:connector-curvature="0" />
      <path
         d="m 173.84,108.7775 h 6.34167 v -3.25 H 173.84 v 3.25"
         style="fill:none;stroke:#000000;stroke-width:1"
         inkscape:label="part"
         id="path2239"
         inkscape:connector-curvature="0" />
      <path
         d="m 186.39167,67.1525 h 9.48666 v -3.25 h -9.48666 v 3.25"
         style="fill:none;stroke:#000000;stroke-width:1"
         inkscape:label="part"
         id="path2241"
         inkscape:connector-curvature="0" />
      <path
         d="m 186.39167,87.965 h 9.48666 v -3.25 h -9.48666 v 3.25"
         style="fill:none;stroke:#000000;stroke-width:1"
         inkscape:label="part"
         id="path2243"
         inkscape:connector-curvature="0" />
      <path
         d="m 186.39167,108.7775 h 9.48666 v -3.25 h -9.48666 v 3.25"
         style="fill:none;stroke:#000000;stroke-width:1"
         inkscape:label="part"
         id="path2245"
         inkscape:connector-curvature="0" />
      <path
         d="M 202.08833,67.1525 H 208.43 v -3.25 h -6.34167 v 3.25"
         style="fill:none;stroke:#000000;stroke-width:1"
         inkscape:label="part"
         id="path2247"
         inkscape:connector-curvature="0" />
      <path
         d="M 202.08833,87.965 H 208.43 v -3.25 h -6.34167 v 3.25"
         style="fill:none;stroke:#000000;stroke-width:1"
         inkscape:label="part"
         id="path2249"
         inkscape:connector-curvature="0" />
      <path
         d="M 202.08833,108.7775 H 208.43 v -3.25 h -6.34167 v 3.25"
         style="fill:none;stroke:#000000;stroke-width:1"
         inkscape:label="part"
         id="path2251"
         inkscape:connector-curvature="0" />
      <path
         d="m 173.84,46.34 h 6.34167 v -3.25 h 6.21 v 3.25 h 9.48666 v -3.25 h 6.21 v 3.25 H 208.43"
         style="fill:none;stroke:#000000;stroke-width:1"
         inkscape:label="part"
         id="path2253"
         inkscape:connector-curvature="0" />
      <path
         d="m 208.43,46.34 v 3.859286 0 6.21 0 7.004286 0 6.21 0 7.004285 0 6.21 0 7.004286 0 6.21 0 7.004287 0 6.21 0 7.00428 0 6.21 0 3.85929"
         style="fill:none;stroke:#000000;stroke-width:1"
         inkscape:label="part"
         id="path2255"
         inkscape:connector-curvature="0" />
      <path
         d="m 208.43,126.34 h -6.34167 v 3.25 h -6.21 v -3.25 h -9.48666 v 3.25 h -6.21 v -3.25 H 173.84"
         style="fill:none;stroke:#000000;stroke-width:1"
         inkscape:label="part"
         id="path2257"
         inkscape:connector-curvature="0" />
      <path
         d="m 173.84,126.34 v -3.85929 0 -6.21 0 -7.00428 0 -6.21 0 -7.004287 0 -6.21 0 -7.004286 0 -6.21 0 -7.004285 0 -6.21 0 -7.004286 0 -6.21 0 V 46.34"
         style="fill:none;stroke:#000000;stroke-width:1"
         inkscape:label="part"
         id="path2259"
         inkscape:connector-curvature="0" />
    </g>
    <g
       id="g2435"
       transform="translate(41.162791,-171.62791)">
      <path
         d="m 0,235.5825 h 20.65 v 3.25 H 0 v -3.25"
         style="fill:none;stroke:#000000;stroke-width:1"
         inkscape:label="part"
         id="path2261"
         inkscape:connector-curvature="0" />
      <path
         d="m 0,256.395 h 20.65 v 3.25 H 0 v -3.25"
         style="fill:none;stroke:#000000;stroke-width:1"
         inkscape:label="part"
         id="path2263"
         inkscape:connector-curvature="0" />
      <path
         d="m 0,277.2075 h 20.65 v 3.25 H 0 v -3.25"
         style="fill:none;stroke:#000000;stroke-width:1"
         inkscape:label="part"
         id="path2265"
         inkscape:connector-curvature="0" />
      <path
         d="m 3.25,218.02 h 6.3416667 v -3.25 h 6.2100003 v 3.25 h 9.486666 v -3.25 h 6.21 v 3.25 H 37.84"
         style="fill:none;stroke:#000000;stroke-width:1"
         inkscape:label="part"
         id="path2267"
         inkscape:connector-curvature="0" />
      <path
         d="m 37.84,218.02 v 3.85929 0 6.21 0 7.00428 0 6.21 0 7.00429 0 6.21 0 7.00428 0 6.21 0 7.00429 0 6.21 0 7.00428 0 6.21 0 3.85929"
         style="fill:none;stroke:#000000;stroke-width:1"
         inkscape:label="part"
         id="path2269"
         inkscape:connector-curvature="0" />
      <path
         d="m 37.84,298.02 h -6.341667 v 3.25 h -6.21 v -3.25 h -9.486666 v 3.25 H 9.5916667 v -3.25 H 3.25"
         style="fill:none;stroke:#000000;stroke-width:1"
         inkscape:label="part"
         id="path2271"
         inkscape:connector-curvature="0" />
      <path
         d="m 3.25,298.02 v -3.85929 0 -6.21 0 -7.00428 0 -6.21 0 -7.00429 0 -6.21 0 -7.00428 0 -6.21 0 -7.00429 0 -6.21 0 -7.00428 0 -6.21 0 -3.85929"
         style="fill:none;stroke:#000000;stroke-width:1"
         inkscape:label="part"
         id="path2273"
         inkscape:connector-curvature="0" />
      <path
         d="m 42.09,235.5825 h 20.65 v 3.25 H 42.09 v -3.25"
         style="fill:none;stroke:#000000;stroke-width:1"
         inkscape:label="part"
         id="path2275"
         inkscape:connector-curvature="0" />
      <path
         d="m 42.09,256.395 h 20.65 v 3.25 H 42.09 v -3.25"
         style="fill:none;stroke:#000000;stroke-width:1"
         inkscape:label="part"
         id="path2277"
         inkscape:connector-curvature="0" />
      <path
         d="m 42.09,277.2075 h 20.65 v 3.25 H 42.09 v -3.25"
         style="fill:none;stroke:#000000;stroke-width:1"
         inkscape:label="part"
         id="path2279"
         inkscape:connector-curvature="0" />
      <path
         d="m 45.34,218.02 h 6.341667 v -3.25 h 6.21 v 3.25 h 9.486667 v -3.25 h 6.21 v 3.25 H 79.93"
         style="fill:none;stroke:#000000;stroke-width:1"
         inkscape:label="part"
         id="path2281"
         inkscape:connector-curvature="0" />
      <path
         d="m 79.93,218.02 v 3.85929 0 6.21 0 7.00428 0 6.21 0 7.00429 0 6.21 0 7.00428 0 6.21 0 7.00429 0 6.21 0 7.00428 0 6.21 0 3.85929"
         style="fill:none;stroke:#000000;stroke-width:1"
         inkscape:label="part"
         id="path2283"
         inkscape:connector-curvature="0" />
      <path
         d="m 79.93,298.02 h -6.341666 v 3.25 h -6.21 v -3.25 h -9.486667 v 3.25 h -6.21 v -3.25 H 45.34"
         style="fill:none;stroke:#000000;stroke-width:1"
         inkscape:label="part"
         id="path2285"
         inkscape:connector-curvature="0" />
      <path
         d="m 45.34,298.02 v -3.85929 0 -6.21 0 -7.00428 0 -6.21 0 -7.00429 0 -6.21 0 -7.00428 0 -6.21 0 -7.00429 0 -6.21 0 -7.00428 0 -6.21 0 -3.85929"
         style="fill:none;stroke:#000000;stroke-width:1"
         inkscape:label="part"
         id="path2287"
         inkscape:connector-curvature="0" />
    </g>
    <g
       id="g2478"
       transform="translate(-40.116279,0.69767442)">
      <path
         d="m 43.09,4.25 h 5.940455 v 0 h 6.21 v 0 h 5.835454 v 0 h 6.21 v 0 h 5.835455 v 0 h 6.21 v 0 h 5.835454 v 0 h 6.21 v 0 h 5.835455 v 0 h 6.209997 v 0 h 5.83546 v 0 h 6.21 v 0 h 5.83545 v 0 h 6.21 v 0 h 5.83546 v 0 h 6.21 v 0 h 5.83545 v 0 h 6.21 v 0 h 5.83546 v 0 h 6.21 v 0 H 169.59"
         style="fill:none;stroke:#000000;stroke-width:1"
         inkscape:label="part"
         id="path2289"
         inkscape:connector-curvature="0" />
      <path
         d="m 125.25667,10.801667 v 5.79 h 3.25 v -5.79 h -3.25"
         style="fill:none;stroke:#000000;stroke-width:1"
         inkscape:label="part"
         id="path2291"
         inkscape:connector-curvature="0" />
      <path
         d="m 84.173333,10.801667 v 5.79 h 3.25 v -5.79 h -3.25"
         style="fill:none;stroke:#000000;stroke-width:1"
         inkscape:label="part"
         id="path2293"
         inkscape:connector-curvature="0" />
      <path
         d="m 125.25667,26.498333 v 5.79 h 3.25 v -5.79 h -3.25"
         style="fill:none;stroke:#000000;stroke-width:1"
         inkscape:label="part"
         id="path2295"
         inkscape:connector-curvature="0" />
      <path
         d="m 84.173333,26.498333 v 5.79 h 3.25 v -5.79 h -3.25"
         style="fill:none;stroke:#000000;stroke-width:1"
         inkscape:label="part"
         id="path2297"
         inkscape:connector-curvature="0" />
      <path
         d="m 169.59,4.25 v 6.551667 h -3.25 v 5.79 h 3.25 v 9.906666 h -3.25 v 5.79 h 3.25 V 38.84"
         style="fill:none;stroke:#000000;stroke-width:1"
         inkscape:label="part"
         id="path2299"
         inkscape:connector-curvature="0" />
      <path
         d="m 169.59,38.84 h -5.94045 v 0 h -6.21 v 0 h -5.83546 v 0 h -6.21 v 0 h -5.83545 v 0 h -6.21 v 0 h -5.83546 v 0 h -6.21 v 0 h -5.83545 v 0 h -6.21 v 0 h -5.83546 v 0 h -6.209997 v 0 h -5.835455 v 0 h -6.21 v 0 h -5.835454 v 0 h -6.21 v 0 h -5.835455 v 0 h -6.21 v 0 h -5.835454 v 0 h -6.21 v 0 H 43.09"
         style="fill:none;stroke:#000000;stroke-width:1"
         inkscape:label="part"
         id="path2301"
         inkscape:connector-curvature="0" />
      <path
         d="m 43.09,38.84 v -6.551667 h 3.25 v -5.79 h -3.25 v -9.906666 h 3.25 v -5.79 H 43.09 V 4.25"
         style="fill:none;stroke:#000000;stroke-width:1"
         inkscape:label="part"
         id="path2303"
         inkscape:connector-curvature="0" />
    </g>
    <path
       id="path2305"
       inkscape:label="part"
       style="stroke:#000000;stroke-width:1;fill:none"
       d="M 4.25,67.1525001526 L 10.591666718,67.1525001526 L 10.591666718,63.9025001526 L 4.25,63.9025001526 L 4.25,67.1525001526 " />
    <path
       id="path2307"
       inkscape:label="part"
       style="stroke:#000000;stroke-width:1;fill:none"
       d="M 4.25,87.9650001526 L 10.591666718,87.9650001526 L 10.591666718,84.7150001526 L 4.25,84.7150001526 L 4.25,87.9650001526 " />
    <path
       id="path2309"
       inkscape:label="part"
       style="stroke:#000000;stroke-width:1;fill:none"
       d="M 4.25,108.777500153 L 10.591666718,108.777500153 L 10.591666718,105.527500153 L 4.25,105.527500153 L 4.25,108.777500153 " />
    <path
       id="path2311"
       inkscape:label="part"
       style="stroke:#000000;stroke-width:1;fill:none"
       d="M 16.801666717,67.1525001526 L 26.2883334356,67.1525001526 L 26.2883334356,63.9025001526 L 16.801666717,63.9025001526 L 16.801666717,67.1525001526 " />
    <path
       id="path2313"
       inkscape:label="part"
       style="stroke:#000000;stroke-width:1;fill:none"
       d="M 16.801666717,87.9650001526 L 26.2883334356,87.9650001526 L 26.2883334356,84.7150001526 L 16.801666717,84.7150001526 L 16.801666717,87.9650001526 " />
    <path
       id="path2315"
       inkscape:label="part"
       style="stroke:#000000;stroke-width:1;fill:none"
       d="M 16.801666717,108.777500153 L 26.2883334356,108.777500153 L 26.2883334356,105.527500153 L 16.801666717,105.527500153 L 16.801666717,108.777500153 " />
    <path
       id="path2317"
       inkscape:label="part"
       style="stroke:#000000;stroke-width:1;fill:none"
       d="M 32.4983334346,67.1525001526 L 38.8400001526,67.1525001526 L 38.8400001526,63.9025001526 L 32.4983334346,63.9025001526 L 32.4983334346,67.1525001526 " />
    <path
       id="path2319"
       inkscape:label="part"
       style="stroke:#000000;stroke-width:1;fill:none"
       d="M 32.4983334346,87.9650001526 L 38.8400001526,87.9650001526 L 38.8400001526,84.7150001526 L 32.4983334346,84.7150001526 L 32.4983334346,87.9650001526 " />
    <path
       id="path2321"
       inkscape:label="part"
       style="stroke:#000000;stroke-width:1;fill:none"
       d="M 32.4983334346,108.777500153 L 38.8400001526,108.777500153 L 38.8400001526,105.527500153 L 32.4983334346,105.527500153 L 32.4983334346,108.777500153 " />
    <path
       id="path2323"
       inkscape:label="part"
       style="stroke:#000000;stroke-width:1;fill:none"
       d="M 4.25,46.3400001526 L 10.591666718,46.3400001526 L 10.591666718,43.0900001526 L 16.801666717,43.0900001526 L 16.801666717,46.3400001526 L 26.2883334356,46.3400001526 L 26.2883334356,43.0900001526 L 32.4983334346,43.0900001526 L 32.4983334346,46.3400001526 L 38.8400001526,46.3400001526 " />
    <path
       id="path2325"
       inkscape:label="part"
       style="stroke:#000000;stroke-width:1;fill:none"
       d="M 38.8400001526,46.3400001526 L 38.8400001526,50.1992858674 L 38.8400001526,50.1992858674 L 38.8400001526,56.4092858664 L 38.8400001526,56.4092858664 L 38.8400001526,63.4135715817 L 38.8400001526,63.4135715817 L 38.8400001526,69.6235715807 L 38.8400001526,69.6235715807 L 38.8400001526,76.6278572959 L 38.8400001526,76.6278572959 L 38.8400001526,82.837857295 L 38.8400001526,82.837857295 L 38.8400001526,89.8421430102 L 38.8400001526,89.8421430102 L 38.8400001526,96.0521430093 L 38.8400001526,96.0521430093 L 38.8400001526,103.056428725 L 38.8400001526,103.056428725 L 38.8400001526,109.266428724 L 38.8400001526,109.266428724 L 38.8400001526,116.270714439 L 38.8400001526,116.270714439 L 38.8400001526,122.480714438 L 38.8400001526,122.480714438 L 38.8400001526,126.340000153 " />
    <path
       id="path2327"
       inkscape:label="part"
       style="stroke:#000000;stroke-width:1;fill:none"
       d="M 38.8400001526,126.340000153 L 32.4983334346,126.340000153 L 32.4983334346,129.590000153 L 26.2883334356,129.590000153 L 26.2883334356,126.340000153 L 16.801666717,126.340000153 L 16.801666717,129.590000153 L 10.591666718,129.590000153 L 10.591666718,126.340000153 L 4.25,126.340000153 " />
    <path
       id="path2329"
       inkscape:label="part"
       style="stroke:#000000;stroke-width:1;fill:none"
       d="M 4.25,126.340000153 L 4.25,122.480714438 L 4.25,122.480714438 L 4.25,116.270714439 L 4.25,116.270714439 L 4.25,109.266428724 L 4.25,109.266428724 L 4.25,103.056428725 L 4.25,103.056428725 L 4.25,96.0521430093 L 4.25,96.0521430093 L 4.25,89.8421430102 L 4.25,89.8421430102 L 4.25,82.837857295 L 4.25,82.837857295 L 4.25,76.6278572959 L 4.25,76.6278572959 L 4.25,69.6235715807 L 4.25,69.6235715807 L 4.25,63.4135715817 L 4.25,63.4135715817 L 4.25,56.4092858664 L 4.25,56.4092858664 L 4.25,50.1992858674 L 4.25,50.1992858674 L 4.25,46.3400001526 " />
  </g>
  <g
     id="g1495"
     inkscape:groupmode="layer"
     inkscape:label="newlayer" />
  <g
     inkscape:label="newlayer"
     inkscape:groupmode="layer"
     id="g1619" />
  <g
     id="g1805"
     inkscape:groupmode="layer"
     inkscape:label="newlayer" />
  <g
     inkscape:label="newlayer"
     inkscape:groupmode="layer"
     id="g2084" />
  <g
     id="g2336"
     inkscape:groupmode="layer"
     inkscape:label="newlayer" />
</svg>
